<?xml version="1.0" encoding="UTF-8"?>
<svg xmlns="http://www.w3.org/2000/svg" version="1.1" viewBox="0 0 110 103">
  <defs>
    <style>
      .cls-1, .cls-2, .cls-3, .cls-4, .cls-5, .cls-6 {
        fill: #fff;
      }

      .cls-2 {
        stroke-width: .3px;
      }

      .cls-2, .cls-3, .cls-4, .cls-5, .cls-6 {
        fill-rule: evenodd;
        stroke: #fff;
      }

      .cls-3 {
        stroke-width: .2px;
      }

      .cls-4 {
        stroke-width: .2px;
      }

      .cls-5 {
        stroke-width: .2px;
      }

      .cls-6 {
        stroke-width: .4px;
      }
    </style>
  </defs>
  <!-- Generator: Adobe Illustrator 28.7.1, SVG Export Plug-In . SVG Version: 1.2.0 Build 142)  -->
  <g>
    <g id="_圖層_1" data-name="圖層_1">
      <path class="cls-6" d="M50.9,56c6,.2,12.5-4.8,20.1-20.5-22.2,7.1-39.5,2.5-37.8-.5,1.2-2.1,10.6-5.2,36.3-1,0,0-8-.6-16.7-1.2-10-.6-17.5.2-18,2.6-.2,3,24.6,3.7,36.3,0-3,10.1-9.7,23.2-20.9,22.5-7.1-.6-13.4-10-17.7-18.6,7,10.8,12.3,16.3,18.5,16.7Z"/>
      <path class="cls-6" d="M69.8,39.8s2.9-5.2,7.4-4.7c6.7.7-4.9,16.4-13.8,16.3,1.4-.4,3.2-1,6-3.1,3.4-2.5,11.3-10.1,5.9-11.3-2-.5-5.5,2.9-5.5,2.9Z"/>
      <path class="cls-2" d="M40.5,53.6s-28.6,3.6-2.9,9.6c34,8,45.4-3.3,45.5-4.8.1-6.3-19.7-5.4-19.7-5.4,5.8.8,6.1.1,12.8,1.7,6.7,1.5-2.5,10.5-16.6,9.8-24.9-1.2-42-6-19-11h0Z"/>
      <path class="cls-3" d="M49,1c-1.5,3.1-1.9,11.2,3.5,15.1,5.4,3.9-3.6,20.6-4,20.6-.4,0,5.8-14.8,3.3-18.3-2.5-3.5-2.8-17.4-2.8-17.4Z"/>
      <path class="cls-4" d="M45.7,5.1c-1.5,2.7-1.9,9.7,3.5,13.1,5.4,3.4-5.2,18.5-5.6,18.5-.4,0,7.4-13.4,4.9-16.5-2.5-3-2.8-15.1-2.8-15.1Z"/>
      <path class="cls-5" d="M55.8,6.2c-1.5,2.6-3.5,9.5,1.9,12.7,5.4,3.2-5.2,17.8-5.6,17.7-.4,0,7.4-12.9,4.9-15.8-2.5-2.9-1.2-14.7-1.2-14.7Z"/>
      <path class="cls-1" d="M15.3,89.3c0,0-.1.3-.2.5,0,.3-.2.5-.3.7,0,.2-.2.4-.3.5-.2.1-.3.2-.5.2s-.5,0-.6-.2c0,0,0-.1-.1-.1,0,0,0,0,0,0,0,0,0,0,0,.1,0,0,0,0,0,.2,0,0,0,0,0,0,0,0,0,0,0,0,0,0,0,0,0,0-.2.8-.4,1.4-.5,1.9-.1.3-.2.5-.3.6-.2.2-.4.2-.6,0,0,0-.1-.2-.1-.3,0-.1,0-.3.2-.6,0-.1.1-.4.3-.8.1-.4.2-.7.3-.9,0-.2.2-.5.2-.9,0-.4.1-.7.2-1.1,0-.4,0-.7,0-1.1,0,0-.2,0-.4.2-.7.4-1,.6-1.2.6-.3-.1-.4-.3-.3-.5,0-.2.3-.3.6-.5.2,0,.5-.3.8-.5.3-.3.6-.5.7-.6,0-.1,0-.3,0-.5,0-.2,0-.5,0-.6,0-.2,0-.4,0-.6,0-.2,0-.4.1-.5,0-.1.1-.3.2-.3.2-.1.3-.1.5,0,0,0,.1.1.1.2s0,.3-.1.6c0,.2,0,.4,0,.7,0,.3,0,.4,0,.4,0,0,.2,0,.5-.2.3-.1.5-.2.5-.2,0,0,.2,0,.4.1.2,0,.3.1.4.2.2.3.3.8.3,1.4,0,.6-.1,1.1-.3,1.6ZM14.2,90c0-.1,0-.2.1-.3,0,0,0-.2,0-.3,0,0,0-.2,0-.2,0,0,0-.1,0-.2,0,0,0-.1,0-.2,0,0,0-.1,0-.2,0-.1,0-.2,0-.2,0-.2.1-.5.1-.8,0-.3,0-.6-.2-.7-.1,0-.3,0-.5.1-.3.2-.5.4-.6.6,0,.2-.1.7,0,1.3,0,.6,0,1,0,1.2,0,.2,0,.3.1.4.1,0,.2,0,.3,0,0,0,.2-.2.3-.5ZM19.8,89.7c-.1,0-.3,0-.4-.3-.1-.1-.2-.2-.3-.2,0,0,0,.1,0,.3,0,.2,0,.3-.2.4-.1.1-.2.1-.3.1-.1,0-.2,0-.3-.1,0,0,0,0,0-.2v-.2c0,0,0-.2,0-.3,0-.1,0-.2,0-.3l.2-.6v-.8c-.1-.9-.1-1.4,0-1.5.1,0,.3,0,.5,0,.2,0,.3.2.3.4,0,.1,0,.2,0,.2,0,0,0,0,0,0,0,0,0,0,.1,0,.1,0,.1.1,0,.4,0,.1,0,.3-.1.6,0,.3,0,.6,0,.8,0,.2,0,.4,0,.4,0-.2.2-.4.4-.7.2-.3.4-.5.5-.7.2-.4.4-.6.4-.7,0,0,0-.2,0-.2,0,0,0-.1,0-.1,0,0-.1,0-.3,0-.8,0-.9-.3-.3-.7.1,0,.4-.1.7,0,.3,0,.5,0,.6.2.2.4.2.7.2.9,0,.1-.1.4-.3.6-.2.3-.3.4-.3.5,0,.1-.2.3-.3.4-.2.2-.2.4-.1.4s0,0,.2,0c.2,0,.4,0,.5,0,.3,0,.6-.1,1-.2.4-.1.7-.2,1-.2.3-.1.5,0,.6.2.1.2,0,.5-.1.6,0,0-.2,0-.5,0-.7,0-1.5.2-2.4.5,0,0-.2.1-.4.2-.2,0-.3,0-.4,0ZM8.9,89.9c0,0-.1.2-.2.4,0,.2-.2.4-.2.4,0,0-.1.2-.3.4-.1.1-.3.2-.4.4,0,0,0,0-.2.2,0,0-.1.2-.2.2,0,0-.1,0-.2.1,0,0-.2,0-.2,0-.1,0-.2-.2-.2-.3,0-.1,0-.4,0-.7,0-.6,0-.9,0-1,0-.1,0-.3,0-.7,0-.4,0-.6-.1-.8,0-.5,0-.8-.1-.9-.1-.2-.1-.4,0-.4.2,0,.4,0,.6,0,0,0,0,.2.2.5,0,.3.1.3.2,0,0-.2.2-.3.4-.3.3,0,.5,0,.6.1,0,0,.1.1.2.2,0,0,0,.1,0,.2,0,0,0,.2,0,.2,0,0,0,.3,0,.6,0,.3,0,.5,0,.6,0,.1,0,.3-.2.5ZM8.3,88.5c0-.2-.2-.2-.3,0-.1.2-.2.4-.3.5,0,.2,0,.4,0,.7,0,.5,0,.7,0,.7.2,0,.3-.4.5-1,.1-.5.1-.8,0-1ZM41.3,86c0,.1,0,.2-.2.3,0,0-.2.1-.4.2-.2,0-.3.1-.3.1-.2,0-.4.2-.5.2-.2,0-.4.1-.4.2,0,0,0,.2-.1.4h0v.2h0v.2c0,.3,0,.4,0,.5,0,0,.1,0,.3,0,.5-.2.8-.4.9-.5.3-.2.6-.2.7-.1.1.1.2.2.1.3,0,.1-.2.3-.5.5-.1.1-.4.3-.7.4-.4.2-.6.3-.7.3,0,0-.1,0-.2,0,0,0,0,.3,0,.8,0,.5,0,.7,0,.8,0,0,0,0,0,0s.1,0,.2,0c0,0,.1,0,.2,0,0,0,.1,0,.2,0,0,0,.1,0,.1,0,.2,0,.4-.2.8-.4.4-.2.7-.4.8-.4.2-.1.4-.1.5,0,.1,0,.1.2,0,.4,0,.2-.3.3-.5.5-1,.6-1.7,1-2.2,1.2h-.2c0,.1,0,.5,0,.5,0,1.3,0,2.4,0,3.3,0,.4-.2.6-.4.7-.2,0-.4,0-.5-.3,0-.1,0-.5,0-1,.1-1,.2-1.7.1-2.1,0-.3,0-1.4,0-3.2,0-1.8,0-3.1,0-3.6,0-1.1,0-1.7,0-1.8,0-.1,0-.3,0-.6,0-.3,0-.6-.1-.9,0-.2,0-.3,0-.3,0,0,0-.1.1-.2,0,0,.2,0,.3,0,.1,0,.2,0,.3,0,.1.2.2.9.2,2.3,0,.9,0,1.3,0,1.4,0,0,.2,0,.5,0,.3,0,.5-.2.6-.3.1-.1.3-.2.5,0,.2,0,.3.2.3.4ZM35.5,87.5c0,2.4,0,3.8-.2,4.3,0,0,0,.3,0,.5,0,.2,0,.4,0,.6,0,.2,0,.4,0,.5,0,.2-.1.4-.2.5,0,.1-.2.2-.4.2,0,0-.2,0-.3-.2-.1-.1-.2-.2-.3-.3,0,0-.1-.3-.2-.5,0-.3,0-.5,0-.6,0-.4-.2-.5-.5-.3,0,0-.2.1-.4.1-.2,0-.3,0-.4,0-.1,0-.2-.1-.1-.2,0,0,0-.1,0-.1,0,0,.1,0,.2,0,0,0,.1,0,.1,0,.4-.2.8-.6,1.5-1,.4-.3.6-.7.6-1s0-.4-.1-.4c0,0-.3.1-.5.4-.2.1-.3.3-.5.4-.2.1-.3.2-.4.2s-.2,0-.2-.1c0,0-.1-.2-.1-.3s0-.2.3-.3c.6-.4,1-.7,1.1-.8,0,0,.1-.1.3-.2.2-.1.3-.2.3-.4,0-.2,0-.3,0-.4s0-.1-.2-.2c-.1-.1-.2-.2-.3-.2-.1,0-.3.1-.7.4-.4.2-.6.3-.7.3-.1,0-.2-.1-.3-.2,0-.1,0-.2,0-.4.7-.5,1.3-.8,1.9-.9,0,0,.1,0,.2-.2,0-.1,0-.3,0-.6,0-.3,0-.5-.1-.5,0,0,0-.1-.2-.1-.1,0-.2-.1-.2-.4,0-.2.1-.4.3-.5.2-.1.4-.1.6,0,.1.2.2.3.3.4,0,.1.1.3.1.5,0,.2,0,.4,0,.5s0,.4,0,.8c0,.4,0,.8,0,1.2ZM34.6,91.8c0-.3,0-.4,0-.4,0,0-.1,0-.3.2-.1.1-.2.2-.2.3,0,0,0,.2,0,.4,0,.1,0,.3,0,.4.1.5.2.6.3.2,0-.2,0-.6,0-1ZM28,87.3c.2,0,.4,0,.5,0,.1.1.1.3.1.6,0,.1,0,.3,0,.3,0,0,0,.1,0,.2,0,0,0,0,0,0,0,0,0,0,.2-.1.2-.3.6-.4,1.2-.3.6,0,.9.2,1,.5.1.3,0,.8-.2,1.5,0,.2-.2.5-.4.8-.2.3-.4.6-.6.7-.4.3-.7.4-1,.3,0,0-.1,0-.1,0,0,0,0,0-.2.1-.2.3-.4.3-.5,0,0,0-.1-.4-.1-1.1s0-1.1,0-2.3c0-.6,0-1,0-1.1,0-.2,0-.2,0-.3ZM28.8,91.3c.2,0,.5-.3.9-.8.4-.5.6-1,.6-1.3,0-.3,0-.4-.3-.5-.2,0-.4,0-.6.1,0,0,0,0-.2,0,0,0-.2,0-.3,0-.1,0-.2,0-.2,0,0,0,0,.1,0,.3,0,.2,0,.4,0,.5,0,.9,0,1.4.2,1.4ZM59.5,82.6c0,0,.3,0,.6,0,.3,0,.6,0,.9,0,.3,0,.4,0,.4.1.2.1.1.5,0,1-.2.5-.5,1-.7,1.3-.3.5-.4.8-.4.9,0,0,.2,0,.6,0,.5,0,.9.2,1.2.5.1,1,0,1.8-.6,2.3-.2.2-.3.3-.4.3-.1,0-.3,0-.5,0-.1,0-.3-.1-.4-.3-.1-.1-.3-.4-.6-.8,0,0-.2-.2-.3-.3-.1-.2-.2-.2-.2-.2,0,0,0,.2,0,.6v.5c0,1.1,0,2.4,0,3.8,0,1.4,0,2.2,0,2.4,0,.2,0,.6,0,1v.2c0,.4,0,.6,0,.7,0,.1-.2.2-.4.2-.2,0-.3-.2-.5-.4-.1-.2-.1-.3,0-.5,0,0,.1-.3.2-.7,0-.4,0-1.8,0-4.1,0-.3,0-.7,0-1.2v-.9c0-.1,0-.4,0-.6,0-.3,0-.5,0-.6,0-.1,0-.3,0-.4,0-.2,0-.4,0-.5,0-.2,0-.4,0-.5,0-.2,0-.4,0-.8,0-.2,0-.4,0-.6.1-.2.2-.4.4-.3.1,0,.2.1.3.3,0,.2.1.4.2.6,0,.8.4,1.5,1,2.2.3.4.5.5.7.6.2,0,.3-.1.4-.4,0,0,0,0,0-.2,0-.1.1-.3.1-.4,0,0,0-.2,0-.3s0-.2-.1-.3c0,0-.1,0-.2,0,0,0-.2,0-.4,0-.6,0-.9,0-1.1-.3-.2-.2-.2-.5,0-.9,0,0,0-.2.1-.3,0-.1,0-.2.1-.3,0,0,.1-.2.2-.4.4-.6.6-1,.6-1.2,0,0,0,0,0,0,0,0-.3,0-.7,0s-.8,0-.9,0c0,0,0-.1,0-.3s0-.3,0-.4c0,0,.2,0,.5,0ZM53.1,83.4c.1,0,.2,0,.3.3,0,.2,0,.3,0,.4,0,0-.3.2-.7.4-.4.2-.7.4-.7.4,0,0-.2.3-.4.8-.3.5-.4.8-.5.8-.2.2-.2.3-.2.3,0,0,.1,0,.3-.1,0,0,.3-.2.7-.4.4-.3.7-.5.8-.6.2-.2.4-.4.6-.5.1,0,.2-.1.3-.1.1,0,.2,0,.3,0,0,.1,0,.3,0,.4,0,.1-.2.4-.5.7-.3.3-.6.7-.9,1.1-.3.5-.5.7-.5.8-.1.2-.2.3-.2.5,0,.2,0,.4,0,.4,0,0,0,.1,0,.2,0,0,0,0,0,.1,0,0,0,0,0,0,0,0,0,0,.2-.2,0,0,.2-.2.3-.2,0,0,.2,0,.3,0,.6,0,1,0,1.2.4s.4.8.5,1.5c0,.1,0,.3,0,.6,0,.3,0,.5,0,.5,0,.1-.1.4-.2.7,0,.6-.2,1-.4,1.2-.1,0-.2.1-.3.1s-.2,0-.3-.2l-.2-.2c0,0-.2.1-.4.2-.2,0-.3.1-.4.2,0,.1-.2.1-.4,0-.2,0-.2-.2-.2-.3s0-.1,0,0,0,.1,0,.2c0,.1-.1.3-.2.5-.1.2-.2.3-.2.3-.2,0-.4,0-.4-.1,0-.1,0-.2,0-.4.1-.4.2-1.1.3-2.1,0-1,0-1.7,0-2.1-.2.2-.6.9-1.3,2.2-.5.9-.8,1.3-1,1.3s-.1,0-.2,0c0,0,0-.1,0-.2.1-.4.5-1,1-1.8.5-.8.8-1.3,1-1.6.1-.3.4-.6.7-1.1.4-.5.6-.9.7-1.2.1-.2.1-.3,0-.3,0,0-.2,0-.3.2-.2.1-.4.3-.7.4-.3.1-.6.2-.8.3-.1,0-.3,0-.4-.1-.1-.1-.2-.2-.1-.3,0,0,.1-.2.3-.4.4-.3.7-.6,1-.9.3-.3.5-.6.6-.8.1-.2.1-.4,0-.4,0,0-.2,0-.4,0-.7.2-1.1,0-1.1-.3,0,0,0-.2,0-.2,0,0,.1,0,.2,0,0,0,.2,0,.2,0,0,0,.4-.1,1-.2.1,0,.2,0,.3,0,0,0,0,0,0-.1,0,0,0-.1,0-.3s0-.2,0-.4c0-.4,0-.6.2-.7.3-.2.5-.1.6.2,0,.2.1.3.1.3s0,.2-.1.4c0,0,0,.1,0,.1.2,0,.4-.1.7-.4.2-.1.3-.2.4-.2ZM52.1,91.3c0,0,.1,0,.2,0,0,0,.1,0,.1,0s0,0,0,0c0,0,0,0,0,0,0,0,0,0,.2-.1.1-.1.2-.2.2-.2,0,0,0-.1,0-.2,0-.3,0-.4-.2-.6-.2-.1-.4-.1-.6,0-.1,0-.3.3-.4.6-.1.4-.2.7-.2.9,0,0,.2,0,.6-.2ZM53.1,91.8c0-.1,0-.2,0-.2-.1,0-.3.1-.6.3-.2.2-.4.3-.6.3-.3.2-.5.3-.5.3,0,0,0,.2-.1.5,0,.2,0,.4,0,.4,0,0,0,0,.1,0,0,0,.1,0,.2,0,0,0,.1,0,.2,0,.1,0,.3-.1.7-.4.3-.2.5-.4.5-.5,0-.1.2-.4.2-.7ZM72,82.8c-.2,0-.2-.1-.1-.4,0,0,0-.3,0-.6,0-.3,0-.5.1-.5.2,0,.3,0,.4,0,.1,0,.2.2.2.4,0,.2,0,.3,0,.3,0,0,.4-.1,1.1-.5.6-.4,1.1-.4,1.5-.3.1,0,.3.2.4.3.2.2.3.3.3.4,0,0,0,.3,0,.5,0,.3,0,.5,0,.6,0,.2-.2.6-.5,1.2-.3.5-.5.9-.7,1-.2.2-.5.4-.8.5-.3,0-.6,0-.8,0-.1,0-.2,0-.2,0,0,0,0,0,0,.2,0,0,0,0,0,.1,0,.2-.1.4-.2.5-.1,0-.3,0-.4,0-.1-.1-.1-.6,0-1.4,0-.8,0-1.3,0-1.5,0-.4-.1-.6-.2-.6ZM75.4,82.4c0-.2,0-.3,0-.3,0,0,0-.1-.1-.2-.1-.1-.3-.2-.4-.2-.1,0-.3,0-.6.2-.2.1-.7.4-1.3.9,0,0,0,.2,0,.5,0,.3,0,.4,0,.4,0,0,.2,0,.4-.4,0-.1.2-.3.4-.4.2-.2.4-.3.5-.3.5-.2.8-.1.9,0,0,.2.1.2.1,0,0,0,0-.1,0-.2ZM75.2,83.1c0,0,0,0,0,0,0,0,0,0-.2,0-.2,0-.3.1-.4.2,0,0-.1,0-.3.2-.1,0-.2.2-.4.4l-.4.4v.4c0,.2,0,.3,0,.4,0,0,0,0,.1.1,0,0,.1,0,.2,0,0,0,.1-.1.3-.3.3-.3.7-.9,1.1-1.7ZM76.7,86.3c0,.1,0,.2-.3.4-.2.2-.4.2-.4.2,0,0-.1,0-.2,0-.1,0-.2.1-.4.2-.1,0-.2.2-.4.2,0,0-.2.1-.3.2-.1,0-.2.1-.2.1-.2.2-.4.3-.7.5-.3.2-.5.3-.6.5-.1,0-.2.2-.4.3-.1,0-.3.2-.3.3-.1,0-.4.2-.7.4-.3.2-.6.4-1,.6-.3.2-.4.3-.5.3s-.2,0-.3-.1c0,0-.1-.2-.1-.3,0-.1.1-.3.4-.5.3-.2.7-.4,1.2-.7.5-.2.8-.4.9-.6.3-.2.6-.4.9-.6.3-.2.6-.4.7-.5.2-.1.5-.3.9-.6.4-.3.7-.5.8-.5.3-.2.5-.3.7-.2.2,0,.3.1.3.4ZM74.6,88.4c.1,0,.2,0,.2.3,0,.2,0,.6,0,1.4,0,.1,0,.3,0,.6,0,.4,0,.6,0,.7,0,0,.2,0,.4-.3.1-.1.3-.3.6-.6.3-.3.5-.5.6-.7,0-.1.2-.2.2-.3,0,0,.2-.2.2-.3.2-.3.4-.4.6-.4.3,0,.2.4-.3,1.1-.5.6-1.2,1.4-2.1,2.3-.4.4-.7.6-.9.5-.2,0-.3-.2-.3-.3,0-.1,0-.4,0-.7.1-.7.2-1.4.2-2.3,0-.6,0-.9.1-1,0,0,.1-.1.3-.1ZM73.6,93.9c0,0,.2,0,.4.1.2,0,.3.1.4.1.3,0,.8.2,1.4.5.6.2,1,.4,1.2.5.2,0,.6.2,1.2.5.5.2,1,.4,1.3.5,0,0,.2,0,.5.1.2,0,.4.1.5.2.1,0,.3,0,.6.1.2,0,.5,0,.7,0,.3,0,.5,0,.6,0,.1,0,.2.2.2.3,0,.3-.2.4-.6.4s-.9-.1-1.7-.3c-.8-.2-1.4-.4-1.6-.5-.3-.2-.7-.3-1.3-.5-.6-.2-1-.4-1.2-.5-.3-.1-.6-.3-1-.4-.4-.1-.8-.3-1.4-.5-.6-.2-.9-.3-1.1-.4,0,0-.2,0-.5-.1-.3,0-.5,0-.5-.1-.1,0-.2,0-.3,0,0,.1-.2.3-.3.5,0,.2-.2.3-.2.4-.2.3-.4.6-.7.9-.3.3-.5.5-.7.7,0,0-.2.2-.4.3-.2.2-.4.3-.6.4-.2.2-.4.2-.5.2-.3,0-.4-.1-.3-.4,0-.2.2-.4.3-.5,0,0,0,0,.1,0,.1,0,.2,0,.3,0,.1,0,.4-.4.8-.8.4-.4.7-.7.7-.8,0-.2.2-.3.3-.4.4-.6.9-1.6,1.4-2.9,0-.3.2-.4.5-.3.2,0,.3,0,.3,0,0,0,0,.1,0,.3,0,0-.1.2-.2.3,0,.1-.1.3-.2.5,0,.2-.1.3-.2.4-.1.2-.1.4-.1.4,0,0,.2,0,.5.1.3,0,.6.1.7.2.2,0,.4.1.5.2.2,0,.3,0,.4,0ZM99.6,81.7c0,.4,0,.9-.1,1.5,0,.6-.1,1-.1,1.2,0,.1,0,.3,0,.5,0,.2,0,.4,0,.6,0,.2,0,.4,0,.5,0,.2,0,.3.1.3.3.3.4.5.4.8,0,.3-.2.5-.6.7-.2.1-.3.2-.4.3-.1.1-.3.2-.5.2s-.3,0-.3-.2c0,0,0-.1.2-.3.1-.1.3-.2.4-.3.3-.1.3-.3.2-.4-.2,0-.4,0-.7,0-.3.1-.7.3-1.4.5-.6.2-1.1.4-1.5.6-.4.1-.8.3-1.3.5-.5.2-.9.4-1.2.6-.2.1-.5.3-.8.4-.3.2-.6.3-.7.4,0,0-.2.1-.3.2-.1,0-.3.1-.4.2,0,0-.2.2-.4.4-.3.3-.5.5-.6.4-.3,0-.4-.2-.4-.3,0,0,0-.2,0-.3,0-.2.2-.5.5-1.1.1-.3.3-.6.4-.9.1-.3.2-.5.3-.6,0,0,0-.2,0-.4,0-.2,0-.6,0-1.4,0-1.2,0-2-.1-2.4,0-.4-.2-.7-.5-.9-.2,0-.3-.2-.3-.4,0-.2,0-.3.2-.4.4-.4.8-.7,1.2-.9.4-.2.7-.2.9,0,0,0,.1.2,0,.3,0,0-.1.2-.3.2-.1,0-.3.2-.5.3l-.3.2v.3c0,.2,0,.4.1.6v.4h.3c.1,0,.3,0,.5-.2.2-.2.4-.2.5-.2.5.2.5.4,0,.7-.2.1-.4.3-.7.3-.1,0-.2,0-.3.1,0,0-.1,0-.1.2,0,0,0,.1,0,.2v.3c0,.1,0,.2,0,.3,0,.1,0,.2,0,.2s.3-.2.7-.6c.4-.4.7-.7.8-.8,0,0,.2-.1.3-.1.1,0,.2,0,.2.1,0,.1,0,.3-.2.4-.1.2-.3.3-.4.5-.2.2-.3.3-.4.4-.1.1-.3.3-.5.5-.2.2-.4.5-.5.7-.1.2-.2.5-.2.8s0,.3,0,.5c0,.2,0,.3,0,.4,0,0,0,.1,0,.3,0,.1,0,.2-.2.4-.2.3-.2.5-.1.5,0,0,.3,0,.7-.3,1.3-.7,2.3-1.1,2.9-1.4.6-.2.9-.4.9-.4,0,0,0,0-.2-.2-.1-.1-.2-.2-.2-.3,0-.1-.1-.2-.2-.3,0,0-.1,0-.2,0s-.1.1-.2.2c0,0,0,.1-.2.3,0,.2-.2.3-.4.4-.2,0-.3,0-.4,0,0-.1,0-.3.2-.6,0,0,.1-.2.2-.4,0-.2.1-.3.1-.4,0,0-.1-.2-.3-.4-.2-.2-.3-.4-.3-.4,0-.1,0-.2,0-.3,0-.1.2-.2.3-.2.1,0,.2,0,.4.1,0,0,0,0,0,0,.1,0,.2.1.3.1,0,0,.1,0,.2-.2.3-.5.5-.7.7-.7s.3,0,.3.2c0,.1,0,.4-.2.7-.1.3-.2.5-.2.6,0,.1,0,.2.2.4,0,0,.2.2.2.3,0,0,0,.1.1.2,0,0,.1.2,0,.4,0,.2,0,.2,0,.3,0,0,.2,0,.4-.2.3-.1.6-.3,1-.4.4-.1.6-.2.8-.3l.4-.2h0c-.1-.2-.2-.3-.2-.4,0,0,.1-.2.3-.2.2-.1.4-.4.4-.8,0-.2,0-.4,0-.4,0,0-.2,0-.4.1-.2.1-.4.1-.6,0-.2,0-.3-.2-.4-.3,0,0,0-.2,0-.2,0,0,.2-.2.4-.3.2-.1.3-.2.4-.3,0,0,.2-.1.3-.3.1-.1.2-.3.2-.4,0-.3-.1-.3-.3-.1-.2.2-.4.3-.4.3,0,0-.2.1-.3.2-.1,0-.2,0-.3,0,0,0-.2,0-.3-.2,0,0,0-.2,0-.3,0,0,0-.1.2-.2.2-.1.4-.2.6-.4.2-.1.4-.2.5-.3.2-.1.3-.2.4-.2,0,0,.1,0,.1-.1s0-.1-.2-.2c0,0-.3,0-.6,0s-.4,0-.5,0c0,0-.1,0-.2,0-.2-.2,0-.4.4-.6.5-.2.9-.1,1.3,0,0,0,.1,0,.2.1.1,0,.2.2.3.4,0,.2.1.4.1.5ZM93.8,82.3c.1,0,.3,0,.4,0,.1,0,.2-.2.3-.3,0-.1.2-.2.3-.3.1,0,.3,0,.4,0,.2.1.1.3-.1.6-.4.4-.3.6,0,.6.3,0,.5,0,.6.3.2.2.1.3,0,.5-.2.2-.4.2-.8,0-.2,0-.4,0-.4,0,0,0-.2,0-.3.3-.2.3-.4.4-.5.3-.1,0-.1-.3,0-.6,0-.2.1-.3,0-.3,0,0,0-.1-.2-.2-.1,0-.3-.2-.4-.3-.2-.2-.2-.3-.2-.4,0,0,0-.1.2-.2.3,0,.5,0,.6,0ZM95.7,91.7c0,0,.1.2.3.4.2.2.3.3.4.4,0,.2.2.2.3.2.1,0,.4-.1.9-.4.9-.4,1.7-.8,2.3-1.3.1,0,.3,0,.4,0,.2,0,.2.2.2.3,0,.2,0,.3-.2.4,0,0-.2.1-.3.2-.1,0-.3.1-.4.2-.3.2-.8.5-1.6.8-.7.4-1.2.6-1.3.6-.2,0-.3.2-.3.3,0,.1,0,.5-.1,1,0,.8-.1,1.4-.2,1.6,0,.2-.1.6-.3,1-.4.8-.9.8-1.7,0-.2-.2-.3-.3-.4-.5,0-.1-.1-.4-.2-.8,0-.2,0-.4,0-.5,0,0,.1-.1.3,0,0,0,.2.2.2.4,0,.2.1.4.1.4,0,0,0,.1.1.2,0,0,.1.2.2.2,0,0,.1.1.2.2.1,0,.3.1.4,0,.2-.1.4-.9.6-2.3,0-.4,0-.7,0-.7,0,0-.2,0-.4,0-1.5.6-2.4.8-2.8.6-.1,0-.2-.2-.2-.3,0-.2,0-.3.1-.4,0,0,.4-.1.9-.2.6-.1.9-.2.9-.2,0,0,.1,0,.3,0,.6-.2,1-.3,1-.5,0-.1-.1-.2-.4-.3,0,0,0,0,0,0-.6-.2-.7-.7-.2-1.2.1-.1.2-.2.2-.3,0-.1.1-.2.2-.4.2-.4.3-.5.1-.5,0,0-.2,0-.3.1-.3.2-.5.1-.6,0-.2-.2-.2-.3-.1-.4,0-.1.3-.2.6-.4,0,0,.2,0,.5-.2.3-.1.5-.2.8-.2.2,0,.3,0,.4.1,0,0,.1.2,0,.4,0,.1-.1.4-.3.7-.2.3-.3.5-.5.7,0,.1-.2.2-.3.4,0,.1-.1.2-.1.3Z"/>
    </g>
  </g>
</svg>