<svg width="424" height="493" viewBox="0 0 424 493" fill="none" xmlns="http://www.w3.org/2000/svg">
<path fill-rule="evenodd" clip-rule="evenodd" d="M181.465 415.761C226.951 417.611 275.231 379.317 332.511 261.068C165.055 314.455 34.8332 279.827 47.9583 256.975C57.0073 241.225 127.787 217.771 320.929 249.333C320.929 249.333 260.808 244.47 195.391 240.487C119.754 235.882 63.7621 242.308 59.494 260.271C57.7803 282.688 244.892 287.872 332.633 260.746C310.322 337.293 259.783 435.464 175.007 430.288C121.279 426.095 74.2351 354.519 41.8564 290.123C94.4009 371.495 134.484 413.251 181.459 415.763L181.465 415.761Z" fill="#F7F0DD"/>
<path fill-rule="evenodd" clip-rule="evenodd" d="M324.323 293.629C324.323 293.629 345.954 254.11 380.311 257.803C431.116 263.263 343.344 381.4 276.449 380.489C287.327 377.284 300.245 372.883 321.273 357.226C346.949 338.111 406.111 281.297 365.532 271.969C350.409 268.492 324.32 293.631 324.32 293.631L324.323 293.629Z" fill="#F7F0DD"/>
<path fill-rule="evenodd" clip-rule="evenodd" d="M103.264 397.693C103.264 397.693 -111.855 424.945 81.17 470.37C337.282 530.641 423.194 445.608 423.449 434.057C424.552 386.438 274.835 393.619 274.835 393.619C318.501 399.487 320.84 394.72 371.271 406.307C421.702 417.894 352.273 485.346 246.104 480.323C58.258 471.44 -70.3977 434.729 103.254 397.691L103.264 397.693Z" fill="#F7F0DD"/>
<path fill-rule="evenodd" clip-rule="evenodd" d="M167.627 0.75769C156.683 23.9605 153.195 85.1211 193.921 114.525C234.647 143.927 166.691 269.981 163.625 269.87C160.558 269.76 207.58 158.595 188.708 132.107C169.835 105.62 167.625 0.75769 167.625 0.75769H167.627Z" fill="#F7F0DD"/>
<path fill-rule="evenodd" clip-rule="evenodd" d="M142.541 31.4428C131.595 51.5806 128.106 104.661 168.843 130.18C209.578 155.699 129.773 269.983 126.706 269.888C123.639 269.792 182.508 168.428 163.63 145.44C144.752 122.451 142.541 31.441 142.541 31.441V31.4428Z" fill="#F7F0DD"/>
<path fill-rule="evenodd" clip-rule="evenodd" d="M218.677 39.9713C207.73 59.2704 192.41 111.544 233.149 135.999C273.888 160.454 194.075 269.972 191.009 269.881C187.942 269.789 246.814 172.652 227.934 150.624C209.057 128.594 218.676 39.973 218.676 39.973L218.677 39.9713Z" fill="#F7F0DD"/>
</svg>
