<svg width="110" height="103" viewBox="0 0 110 103" fill="none" xmlns="http://www.w3.org/2000/svg">
<path fill-rule="evenodd" clip-rule="evenodd" d="M50.8591 56.0127C56.9005 56.2579 63.313 51.1816 70.921 35.5066C48.6795 42.5836 31.3836 37.9934 33.1269 34.9641C34.3288 32.8762 43.7296 29.7672 69.3826 33.951C69.3826 33.951 61.3973 33.3064 52.7087 32.7784C42.6627 32.1679 35.2259 33.0197 34.6591 35.401C34.4314 38.3726 59.2834 39.0597 70.937 35.4639C67.9738 45.6109 61.2613 58.6245 50.0013 57.9384C42.8652 57.3825 36.617 47.8945 32.3164 39.3581C39.2954 50.1448 44.6198 55.6797 50.8591 56.0127Z" fill="#3D464D" stroke="#3D464D" stroke-width="0.388776"/>
<path fill-rule="evenodd" clip-rule="evenodd" d="M69.8331 39.823C69.8331 39.823 72.7061 34.5843 77.2694 35.0739C84.0173 35.7976 72.3594 51.4577 63.4746 51.3371C64.9193 50.9122 66.635 50.3287 69.428 48.2533C72.8383 45.7195 80.6962 38.1883 75.3065 36.9516C73.2978 36.4908 69.8331 39.823 69.8331 39.823Z" fill="#3D464D" stroke="#3D464D" stroke-width="0.388776"/>
<path fill-rule="evenodd" clip-rule="evenodd" d="M40.4724 53.6175C40.4724 53.6175 11.9003 57.23 37.5378 63.2515C71.5544 71.2411 82.9651 59.9691 82.9991 58.4379C83.1456 52.1257 63.2603 53.0776 63.2603 53.0776C69.06 53.8553 69.3706 53.2235 76.0688 54.7594C82.767 56.2954 73.5455 65.2368 59.4443 64.5709C34.4947 63.3934 17.4067 58.5271 40.471 53.6173L40.4724 53.6175Z" fill="#3D464D" stroke="#3D464D" stroke-width="0.33411"/>
<path fill-rule="evenodd" clip-rule="evenodd" d="M49.0207 1C47.5672 4.07576 47.1039 12.1832 52.5131 16.0809C57.9223 19.9786 48.8965 36.6881 48.4891 36.6734C48.0819 36.6588 54.3273 21.9228 51.8207 18.4117C49.3141 14.9005 49.0207 1 49.0207 1Z" fill="#3D464D" stroke="#3D464D" stroke-width="0.238044"/>
<path fill-rule="evenodd" clip-rule="evenodd" d="M45.6889 5.06763C44.2351 7.73709 43.7716 14.7734 49.1822 18.1562C54.5927 21.5389 43.993 36.6884 43.5857 36.6758C43.1783 36.6631 50.9972 23.2264 48.4899 20.179C45.9825 17.1317 45.6889 5.06763 45.6889 5.06763Z" fill="#3D464D" stroke="#3D464D" stroke-width="0.22179"/>
<path fill-rule="evenodd" clip-rule="evenodd" d="M55.8016 6.19812C54.3477 8.7564 52.3129 15.6858 57.7238 18.9275C63.1347 22.1692 52.5341 36.6869 52.1267 36.6748C51.7194 36.6627 59.5387 23.7862 57.0312 20.8662C54.5238 17.9459 55.8016 6.19812 55.8016 6.19812Z" fill="#3D464D" stroke="#3D464D" stroke-width="0.217125"/>
<path d="M15.2813 89.3489C15.2422 89.44 15.1771 89.6223 15.086 89.8958C14.9948 90.1562 14.9102 90.3775 14.8321 90.5598C14.767 90.7421 14.6563 90.9114 14.5 91.0676C14.3438 91.2109 14.1615 91.2825 13.9532 91.2825C13.6667 91.2825 13.4519 91.2043 13.3086 91.0481C13.2566 90.983 13.211 90.9439 13.1719 90.9309C13.1329 90.9179 13.1003 90.9374 13.0743 90.9895C13.0482 91.0286 13.0222 91.0676 12.9961 91.1067C12.9831 91.1458 12.9701 91.2043 12.9571 91.2825C12.9441 91.3215 12.931 91.3541 12.918 91.3801C12.918 91.3931 12.9115 91.4127 12.8985 91.4387C12.8985 91.4517 12.892 91.4648 12.879 91.4778C12.6836 92.246 12.5144 92.8645 12.3711 93.3333C12.267 93.6458 12.1563 93.8541 12.0391 93.9583C11.8438 94.1666 11.642 94.1926 11.4336 94.0364C11.3425 93.9583 11.2969 93.8671 11.2969 93.7629C11.3099 93.6458 11.375 93.4504 11.4922 93.177C11.5313 93.0338 11.6224 92.7668 11.7657 92.3762C11.9089 91.9726 12.0131 91.6601 12.0782 91.4387C12.1563 91.2043 12.2344 90.9049 12.3125 90.5403C12.4037 90.1627 12.4623 89.7981 12.4883 89.4465C12.5144 89.0819 12.5144 88.7109 12.4883 88.3333C12.4623 88.3072 12.3125 88.3788 12.0391 88.5481C11.3881 88.9648 10.9974 89.1536 10.8672 89.1145C10.5938 88.9713 10.4831 88.815 10.5352 88.6458C10.6003 88.4765 10.7891 88.3202 11.1016 88.177C11.336 88.0859 11.6159 87.9166 11.9415 87.6692C12.267 87.4088 12.5013 87.1939 12.6446 87.0247C12.6576 86.9205 12.6706 86.7447 12.6836 86.4973C12.6967 86.2499 12.7097 86.0416 12.7227 85.8723C12.7357 85.703 12.7553 85.5142 12.7813 85.3059C12.8204 85.0976 12.8659 84.9218 12.918 84.7786C12.9831 84.6353 13.0547 84.5247 13.1329 84.4465C13.3021 84.3163 13.4649 84.3359 13.6211 84.5051C13.6993 84.5833 13.7383 84.6549 13.7383 84.72C13.7383 84.7851 13.6993 84.9804 13.6211 85.3059C13.5821 85.4882 13.556 85.7226 13.543 86.009C13.53 86.2955 13.543 86.4452 13.5821 86.4583C13.6081 86.4713 13.7644 86.4127 14.0508 86.2825C14.3503 86.1392 14.5196 86.0741 14.5586 86.0872C14.6498 86.0872 14.78 86.1262 14.9493 86.2043C15.1316 86.2825 15.2553 86.3541 15.3204 86.4192C15.5287 86.7317 15.6263 87.1874 15.6133 87.7864C15.6003 88.3853 15.4896 88.9062 15.2813 89.3489ZM14.2071 90.0129C14.2592 89.9088 14.3047 89.8111 14.3438 89.72C14.3829 89.6288 14.4154 89.5442 14.4415 89.4661C14.4805 89.3749 14.5066 89.3033 14.5196 89.2512C14.5456 89.1991 14.5652 89.134 14.5782 89.0559C14.6042 88.9778 14.6172 88.9192 14.6172 88.8801C14.6303 88.8411 14.6433 88.7694 14.6563 88.6653C14.6823 88.5611 14.6954 88.483 14.6954 88.4309C14.7865 88.1965 14.8256 87.9166 14.8125 87.5911C14.7995 87.2525 14.7279 87.0181 14.5977 86.8879C14.4805 86.8359 14.3112 86.8749 14.0899 87.0051C13.7774 87.1874 13.5756 87.3958 13.4844 87.6301C13.4063 87.8645 13.3803 88.2877 13.4063 88.8997C13.4323 89.5247 13.4584 89.9348 13.4844 90.1301C13.5105 90.3124 13.556 90.4296 13.6211 90.4817C13.7253 90.5468 13.8165 90.5468 13.8946 90.4817C13.9727 90.4166 14.0769 90.2603 14.2071 90.0129ZM19.754 89.6614C19.6368 89.6614 19.487 89.5767 19.3047 89.4075C19.1615 89.2642 19.0638 89.1991 19.0118 89.2122C18.9727 89.2252 18.9402 89.3228 18.9141 89.5051C18.8881 89.6744 18.8165 89.8176 18.6993 89.9348C18.5951 90.039 18.4844 90.078 18.3672 90.052C18.25 90.0129 18.1654 89.9739 18.1133 89.9348C18.0612 89.8958 18.0287 89.8437 18.0157 89.7786C18.0157 89.7135 18.0157 89.6549 18.0157 89.6028C18.0287 89.5377 18.0547 89.44 18.0938 89.3098C18.1459 89.1796 18.1784 89.0689 18.1915 88.9778L18.3868 88.3333L18.3086 87.5129C18.2435 86.6145 18.2631 86.1132 18.3672 86.009C18.4974 85.9569 18.6602 85.9765 18.8555 86.0676C19.0638 86.1458 19.1485 86.2825 19.1094 86.4778C19.1094 86.595 19.1159 86.6666 19.129 86.6926C19.142 86.7056 19.1745 86.6991 19.2266 86.6731C19.2787 86.634 19.3243 86.608 19.3633 86.595C19.4805 86.595 19.487 86.7187 19.3829 86.9661C19.3438 87.0702 19.3047 87.2786 19.2657 87.5911C19.2266 87.8905 19.2006 88.1575 19.1875 88.3918C19.1745 88.6132 19.181 88.7434 19.2071 88.7825C19.2982 88.6262 19.4415 88.4049 19.6368 88.1184C19.8321 87.8319 19.9883 87.6041 20.1055 87.4348C20.3529 87.0572 20.4961 86.8293 20.5352 86.7512C20.5873 86.6601 20.6068 86.5819 20.5938 86.5168C20.5938 86.4387 20.5743 86.3931 20.5352 86.3801C20.4961 86.3671 20.392 86.3541 20.2227 86.3411C19.4284 86.276 19.3243 86.0481 19.9102 85.6575C20.0404 85.5663 20.2683 85.5338 20.5938 85.5598C20.9323 85.5859 21.1407 85.651 21.2188 85.7551C21.4141 86.1458 21.4662 86.4387 21.375 86.634C21.362 86.7773 21.2644 86.9856 21.0821 87.259C20.9128 87.5325 20.8152 87.7017 20.7891 87.7668C20.737 87.8971 20.6329 88.0468 20.4766 88.2161C20.2943 88.4504 20.2487 88.5676 20.3399 88.5676C20.3659 88.5676 20.431 88.5546 20.5352 88.5286C20.7435 88.4765 20.9063 88.4439 21.0235 88.4309C21.2969 88.3918 21.629 88.3267 22.0196 88.2356C22.4232 88.1314 22.7487 88.0598 22.9961 88.0208C23.2956 87.9036 23.504 87.9687 23.6211 88.2161C23.7383 88.4635 23.6928 88.6718 23.4844 88.8411C23.4323 88.8801 23.2696 88.9062 22.9961 88.9192C22.28 88.9452 21.4727 89.1145 20.5743 89.427C20.4961 89.4791 20.3594 89.5312 20.1641 89.5833C19.9818 89.6353 19.8451 89.6614 19.754 89.6614ZM8.91414 89.9153C8.86206 89.9934 8.78393 90.1366 8.67976 90.345C8.58862 90.5533 8.517 90.703 8.46492 90.7942C8.41284 90.8853 8.3282 91.0025 8.21101 91.1458C8.09383 91.276 7.95711 91.3931 7.80086 91.4973C7.7618 91.5234 7.7032 91.5819 7.62508 91.6731C7.55997 91.7642 7.50138 91.8424 7.4493 91.9075C7.39721 91.9596 7.3256 92.0051 7.23445 92.0442C7.15633 92.0833 7.0782 92.0637 7.00008 91.9856C6.86987 91.9205 6.79174 91.8293 6.7657 91.7122C6.73966 91.595 6.74617 91.3541 6.78523 90.9895C6.8243 90.4036 6.84383 90.0585 6.84383 89.9543C6.85685 89.8502 6.83732 89.6223 6.78523 89.2708C6.73315 88.9062 6.69409 88.6262 6.66805 88.4309C6.642 87.9622 6.60294 87.6757 6.55086 87.5715C6.40763 87.3502 6.43367 87.2004 6.62898 87.1223C6.83732 87.0312 7.02612 87.0442 7.19539 87.1614C7.23445 87.1484 7.29305 87.3306 7.37117 87.7083C7.42325 87.9817 7.49487 88.0142 7.58601 87.8059C7.6381 87.6497 7.78784 87.539 8.03523 87.4739C8.29565 87.4088 8.50398 87.4478 8.66023 87.5911C8.73836 87.6431 8.79695 87.7017 8.83601 87.7668C8.87508 87.8189 8.90763 87.8905 8.93367 87.9817C8.95971 88.0728 8.98575 88.1379 9.0118 88.177C9.05086 88.2551 9.08341 88.4504 9.10945 88.7629C9.14851 89.0234 9.15503 89.2317 9.12898 89.3879C9.10294 89.5312 9.03133 89.7069 8.91414 89.9153ZM8.3282 88.509C8.23706 88.3137 8.12638 88.3202 7.99617 88.5286C7.86596 88.7239 7.78133 88.8997 7.74226 89.0559C7.71622 89.2122 7.7032 89.4596 7.7032 89.7981C7.65112 90.2929 7.68367 90.5208 7.80086 90.4817C7.97013 90.4166 8.13289 90.0846 8.28914 89.4856C8.41935 89.0038 8.43237 88.6783 8.3282 88.509ZM41.2868 85.97C41.2477 86.0741 41.1891 86.1588 41.111 86.2239C41.0329 86.276 40.8961 86.3411 40.7008 86.4192C40.5185 86.4843 40.4144 86.5234 40.3883 86.5364C40.2191 86.6275 40.0368 86.6991 39.8415 86.7512C39.6071 86.8033 39.4638 86.8619 39.4118 86.927C39.3597 86.9791 39.3206 87.1158 39.2946 87.3372C39.2946 87.3632 39.2946 87.3892 39.2946 87.4153C39.2946 87.4413 39.2946 87.4739 39.2946 87.5129C39.2946 87.539 39.2946 87.565 39.2946 87.5911C39.2946 87.6041 39.2946 87.6301 39.2946 87.6692C39.2946 87.9296 39.3076 88.0924 39.3336 88.1575C39.3597 88.2226 39.4573 88.2226 39.6266 88.1575C40.0823 87.9101 40.3818 87.7408 40.525 87.6497C40.8506 87.4413 41.0915 87.4023 41.2477 87.5325C41.3779 87.6366 41.417 87.7473 41.3649 87.8645C41.3128 87.9687 41.15 88.1249 40.8766 88.3333C40.7334 88.4374 40.486 88.5872 40.1344 88.7825C39.7829 88.9778 39.555 89.0885 39.4508 89.1145C39.3597 89.1405 39.3011 89.1731 39.275 89.2122C39.236 89.2512 39.2099 89.5181 39.1969 90.0129C39.1839 90.4947 39.1904 90.7616 39.2165 90.8137C39.2425 90.8398 39.275 90.8528 39.3141 90.8528C39.3662 90.8528 39.4313 90.8398 39.5094 90.8137C39.5875 90.7747 39.6527 90.7421 39.7047 90.7161C39.7698 90.677 39.8284 90.6444 39.8805 90.6184C39.9456 90.5793 39.9847 90.5533 39.9977 90.5403C40.167 90.4752 40.4404 90.3319 40.818 90.1106C41.2086 89.8892 41.4886 89.746 41.6579 89.6809C41.8402 89.5507 42.0094 89.5377 42.1657 89.6418C42.2829 89.733 42.2894 89.8632 42.1852 90.0325C42.0941 90.1887 41.9183 90.3515 41.6579 90.5208C40.6943 91.1197 39.9456 91.5364 39.4118 91.7708L39.1774 91.8879L39.1579 92.3176C39.236 93.6458 39.2165 94.7525 39.0993 95.6379C39.0342 96.0286 38.917 96.2499 38.7477 96.302C38.5263 96.3801 38.3701 96.289 38.279 96.0286C38.2269 95.8984 38.2334 95.5598 38.2985 95.0129C38.4157 94.0234 38.4547 93.3333 38.4157 92.9426C38.3506 92.6171 38.3441 91.5364 38.3961 89.7004C38.4612 87.8515 38.4938 86.6471 38.4938 86.0872C38.4938 85.0064 38.5003 84.401 38.5133 84.2708C38.5263 84.1405 38.5068 83.9257 38.4547 83.6262C38.4027 83.3137 38.3571 83.0273 38.318 82.7668C38.318 82.5976 38.3245 82.4869 38.3375 82.4348C38.3636 82.3827 38.4027 82.3306 38.4547 82.2786C38.5329 82.2135 38.637 82.1809 38.7672 82.1809C38.9105 82.1679 39.0081 82.1939 39.0602 82.259C39.1904 82.4153 39.2685 83.1965 39.2946 84.6028C39.3076 85.4752 39.3206 85.9309 39.3336 85.97C39.3727 86.0351 39.5355 86.0286 39.8219 85.9504C40.1214 85.8723 40.3232 85.7812 40.4274 85.677C40.5706 85.5338 40.7464 85.5077 40.9547 85.5989C41.1631 85.677 41.2737 85.8007 41.2868 85.97ZM35.525 87.4543C35.525 89.8502 35.473 91.2955 35.3688 91.7903C35.3428 91.8814 35.3232 92.0442 35.3102 92.2786C35.2972 92.5129 35.2777 92.7213 35.2516 92.9036C35.2386 93.0728 35.206 93.2551 35.154 93.4504C35.1149 93.6458 35.0433 93.802 34.9391 93.9192C34.848 94.0364 34.7308 94.108 34.5875 94.134C34.5224 94.134 34.4183 94.0754 34.275 93.9583C34.1318 93.8411 34.0342 93.7369 33.9821 93.6458C33.93 93.5546 33.8649 93.3788 33.7868 93.1184C33.7217 92.845 33.6891 92.6562 33.6891 92.552C33.6891 92.1614 33.5263 92.0637 33.2008 92.259C33.1357 92.3241 33.0185 92.3632 32.8493 92.3762C32.693 92.3762 32.5498 92.3437 32.4196 92.2786C32.3024 92.2135 32.2633 92.1353 32.3024 92.0442C32.2894 91.9791 32.3024 91.9335 32.3415 91.9075C32.3935 91.8684 32.4521 91.8359 32.5172 91.8098C32.5954 91.7838 32.6409 91.7577 32.654 91.7317C33.0055 91.5234 33.4938 91.1783 34.1188 90.6965C34.5355 90.384 34.7438 90.039 34.7438 89.6614C34.7438 89.401 34.6982 89.2708 34.6071 89.2708C34.529 89.2577 34.3467 89.3814 34.0602 89.6418C33.904 89.7851 33.7282 89.9153 33.5329 90.0325C33.3375 90.1366 33.2008 90.1887 33.1227 90.1887C33.0446 90.1887 32.9665 90.1497 32.8883 90.0715C32.8102 89.9804 32.7711 89.8958 32.7711 89.8176C32.7711 89.7135 32.8623 89.6028 33.0446 89.4856C33.6696 89.0429 34.0277 88.7694 34.1188 88.6653C34.1448 88.6132 34.249 88.5351 34.4313 88.4309C34.6266 88.3267 34.7178 88.1965 34.7047 88.0403C34.7308 87.858 34.7438 87.7278 34.7438 87.6497C34.7438 87.5846 34.6787 87.5064 34.5485 87.4153C34.4183 87.3111 34.3141 87.259 34.236 87.259C34.1318 87.2721 33.904 87.3958 33.5524 87.6301C33.2008 87.8515 32.9665 87.9491 32.8493 87.9231C32.706 87.884 32.6149 87.8124 32.5758 87.7083C32.5368 87.5911 32.5693 87.4739 32.6735 87.3567C33.3375 86.8749 33.9625 86.5624 34.5485 86.4192C34.6396 86.3931 34.6917 86.328 34.7047 86.2239C34.7308 86.1067 34.7308 85.9049 34.7047 85.6184C34.6657 85.3319 34.6266 85.1497 34.5875 85.0715C34.5485 84.9804 34.4899 84.9348 34.4118 84.9348C34.2685 84.9348 34.2165 84.8111 34.2555 84.5637C34.2816 84.3424 34.3727 84.1731 34.529 84.0559C34.6852 83.9387 34.8805 83.9192 35.1149 83.9973C35.2321 84.1536 35.3232 84.2968 35.3883 84.427C35.4534 84.5442 35.499 84.7069 35.525 84.9153C35.5511 85.1236 35.5641 85.3059 35.5641 85.4622C35.5641 85.6054 35.5576 85.8853 35.5446 86.302C35.5316 86.7187 35.525 87.1028 35.525 87.4543ZM34.5875 91.8098C34.5875 91.5494 34.5615 91.4062 34.5094 91.3801C34.4704 91.3541 34.3597 91.4257 34.1774 91.595C34.0472 91.6991 33.9756 91.7968 33.9625 91.8879C33.9625 91.9661 33.9951 92.0833 34.0602 92.2395C34.1253 92.3827 34.1579 92.5129 34.1579 92.6301C34.275 93.177 34.3857 93.2291 34.4899 92.7864C34.542 92.539 34.5745 92.2135 34.5875 91.8098ZM27.9665 87.259C28.1748 87.22 28.331 87.2525 28.4352 87.3567C28.5394 87.4609 28.5849 87.6497 28.5719 87.9231C28.5719 88.0663 28.5784 88.177 28.5915 88.2551C28.6045 88.3333 28.624 88.3853 28.65 88.4114C28.6761 88.4374 28.7086 88.4439 28.7477 88.4309C28.7868 88.4049 28.8388 88.3593 28.904 88.2942C29.1253 88.0338 29.5159 87.9426 30.0758 88.0208C30.6487 88.0859 30.9808 88.2551 31.0719 88.5286C31.2021 88.8671 31.137 89.3684 30.8766 90.0325C30.8375 90.2278 30.7073 90.4882 30.486 90.8137C30.2777 91.1392 30.0693 91.3866 29.861 91.5559C29.4573 91.8944 29.1318 92.0051 28.8844 91.8879C28.8193 91.8619 28.7737 91.8554 28.7477 91.8684C28.7217 91.8814 28.6696 91.927 28.5915 92.0051C28.3961 92.2655 28.2138 92.2851 28.0446 92.0637C27.9665 91.9856 27.9274 91.621 27.9274 90.97C27.9274 90.6575 27.9209 89.8892 27.9079 88.6653C27.8948 88.0533 27.8883 87.6757 27.8883 87.5325C27.9013 87.3762 27.9274 87.2851 27.9665 87.259ZM28.8454 91.3215C29.0797 91.3215 29.3727 91.0676 29.7243 90.5598C30.0758 90.052 30.2842 89.6028 30.3493 89.2122C30.4013 88.9257 30.3102 88.7629 30.0758 88.7239C29.8545 88.6848 29.6396 88.7239 29.4313 88.8411C29.3922 88.8801 29.3336 88.9127 29.2555 88.9387C29.1774 88.9648 29.0862 88.9908 28.9821 89.0168C28.8779 89.0299 28.8063 89.0429 28.7672 89.0559C28.7412 89.0819 28.7152 89.1926 28.6891 89.3879C28.6761 89.5833 28.6761 89.759 28.6891 89.9153C28.7282 90.8528 28.7803 91.3215 28.8454 91.3215ZM59.4797 82.5715C59.5579 82.5976 59.7532 82.6106 60.0657 82.6106C60.3782 82.5976 60.6646 82.6041 60.925 82.6301C61.1985 82.6431 61.3417 82.6822 61.3547 82.7473C61.524 82.8905 61.4915 83.2356 61.2571 83.7825C61.0227 84.3163 60.7948 84.7655 60.5735 85.1301C60.274 85.5989 60.1568 85.8918 60.2219 86.009C60.248 86.0351 60.4368 86.0611 60.7883 86.0872C61.2701 86.0741 61.6737 86.2499 61.9993 86.6145C62.1295 87.6431 61.9342 88.3984 61.4133 88.8801C61.2441 89.0494 61.0943 89.1601 60.9641 89.2122C60.8339 89.2512 60.6711 89.2447 60.4758 89.1926C60.3326 89.1536 60.1959 89.0689 60.0657 88.9387C59.9355 88.8085 59.7271 88.5546 59.4407 88.177C59.3625 88.0859 59.2779 87.9752 59.1868 87.845C59.0566 87.6757 58.9849 87.6171 58.9719 87.6692C58.9589 87.7213 58.9589 87.9101 58.9719 88.2356C58.9719 88.4569 58.9719 88.6392 58.9719 88.7825C59.011 89.9023 59.0305 91.1718 59.0305 92.5911C59.0435 94.0103 59.037 94.8111 59.011 94.9934C58.9719 95.2278 58.9524 95.5663 58.9524 96.009C58.9524 96.0611 58.9524 96.1327 58.9524 96.2239C58.9394 96.6015 58.9068 96.8424 58.8547 96.9465C58.8027 97.0507 58.6724 97.1093 58.4641 97.1223C58.2818 97.0442 58.1191 96.914 57.9758 96.7317C57.8326 96.5494 57.8326 96.3931 57.9758 96.2629C58.054 96.1718 58.1256 95.9244 58.1907 95.5208C58.2428 95.0911 58.2688 93.7109 58.2688 91.3801C58.2558 91.0806 58.2493 90.69 58.2493 90.2083C58.2493 89.7265 58.2493 89.414 58.2493 89.2708C58.2493 89.1275 58.2428 88.9127 58.2297 88.6262C58.2297 88.3398 58.2232 88.1379 58.2102 88.0208C58.2102 87.9036 58.2037 87.7538 58.1907 87.5715C58.1907 87.3892 58.1842 87.2069 58.1711 87.0247C58.1581 86.8424 58.1451 86.6601 58.1321 86.4778C58.1191 86.2955 58.0995 86.0416 58.0735 85.7161C58.0084 85.5598 58.0279 85.3645 58.1321 85.1301C58.2362 84.8827 58.373 84.7786 58.5422 84.8176C58.6594 84.8437 58.7636 84.9413 58.8547 85.1106C58.9459 85.2668 59.0045 85.4687 59.0305 85.7161C59.1086 86.5364 59.4407 87.2655 60.0266 87.9036C60.3261 88.2551 60.5474 88.4439 60.6907 88.47C60.8469 88.483 60.9902 88.3593 61.1204 88.0989C61.1204 88.0859 61.1464 88.0077 61.1985 87.8645C61.2636 87.7213 61.3092 87.6041 61.3352 87.5129C61.3743 87.4218 61.3938 87.3176 61.3938 87.2004C61.3938 87.0833 61.3547 86.9986 61.2766 86.9465C61.2115 86.8944 61.1464 86.8684 61.0813 86.8684C61.0162 86.8554 60.8665 86.8554 60.6321 86.8684C60.0722 86.9205 59.7076 86.8359 59.5383 86.6145C59.3691 86.3801 59.3821 86.0806 59.5774 85.7161C59.6165 85.6249 59.6555 85.5208 59.6946 85.4036C59.7336 85.2734 59.7727 85.1627 59.8118 85.0715C59.8638 84.9804 59.9355 84.8632 60.0266 84.72C60.4172 84.108 60.6191 83.7043 60.6321 83.509C60.6451 83.4569 60.6191 83.4244 60.554 83.4114C60.4888 83.3984 60.248 83.3918 59.8313 83.3918C59.2974 83.3918 58.998 83.3658 58.9329 83.3137C58.8808 83.2747 58.8547 83.164 58.8547 82.9817C58.8547 82.7994 58.8808 82.6757 58.9329 82.6106C58.998 82.5585 59.1803 82.5455 59.4797 82.5715ZM53.093 83.3723C53.2232 83.3723 53.3079 83.47 53.3469 83.6653C53.399 83.8476 53.373 83.9908 53.2688 84.095C53.2297 84.134 52.9888 84.2708 52.5461 84.5051C52.1034 84.7265 51.8625 84.8632 51.8235 84.9153C51.7974 84.9413 51.6542 85.2083 51.3938 85.7161C51.1334 86.2109 50.9641 86.4843 50.886 86.5364C50.7167 86.7056 50.6516 86.8033 50.6907 86.8293C50.7297 86.8684 50.8274 86.8228 50.9836 86.6926C51.0357 86.6536 51.2636 86.5038 51.6672 86.2434C52.0709 85.97 52.3443 85.7616 52.4875 85.6184C52.7349 85.384 52.9237 85.2148 53.054 85.1106C53.1581 85.0325 53.2623 84.9934 53.3665 84.9934C53.4836 84.9804 53.5683 85.0129 53.6204 85.0911C53.7115 85.2213 53.718 85.358 53.6399 85.5012C53.5748 85.6444 53.399 85.8723 53.1125 86.1848C52.8261 86.4713 52.5396 86.8424 52.2532 87.2981C51.9667 87.7538 51.7844 88.0273 51.7063 88.1184C51.6021 88.2747 51.537 88.4569 51.511 88.6653C51.498 88.8736 51.4784 89.0234 51.4524 89.1145C51.4263 89.1796 51.4003 89.2447 51.3743 89.3098C51.3612 89.3619 51.3547 89.4075 51.3547 89.4465C51.3678 89.4856 51.3808 89.5051 51.3938 89.5051C51.4198 89.4791 51.4719 89.427 51.55 89.3489C51.6412 89.2577 51.7258 89.1861 51.804 89.134C51.8951 89.0689 51.9928 89.0364 52.0969 89.0364C52.6698 88.9583 53.08 89.0885 53.3274 89.427C53.5748 89.7655 53.731 90.2734 53.7961 90.9504C53.7831 91.0676 53.8092 91.276 53.8743 91.5754C53.9524 91.8749 53.9524 92.0572 53.8743 92.1223C53.7961 92.2655 53.7375 92.4999 53.6985 92.8254C53.6334 93.4244 53.5032 93.8085 53.3079 93.9778C53.1777 94.0689 53.067 94.1145 52.9758 94.1145C52.8977 94.1145 52.7935 94.0624 52.6633 93.9583L52.468 93.802C52.4029 93.8671 52.2727 93.9452 52.0774 94.0364C51.8951 94.1145 51.7779 94.1731 51.7258 94.2122C51.6347 94.3163 51.5045 94.3228 51.3352 94.2317C51.179 94.1405 51.1008 94.0364 51.1008 93.9192C51.1008 93.802 51.0748 93.7955 51.0227 93.8997C50.9967 93.9517 50.9706 94.0168 50.9446 94.095C50.9055 94.2382 50.8339 94.401 50.7297 94.5833C50.6256 94.7655 50.5474 94.8567 50.4954 94.8567C50.287 94.8697 50.1438 94.8306 50.0657 94.7395C50.0006 94.6353 50.0071 94.5051 50.0852 94.3489C50.2024 93.9452 50.3 93.2616 50.3782 92.2981C50.4563 91.3346 50.4758 90.6184 50.4368 90.1497C50.2675 90.345 49.8248 91.0872 49.1086 92.3762C48.6269 93.2356 48.2818 93.6653 48.0735 93.6653C48.0084 93.6653 47.9433 93.6327 47.8782 93.5676C47.8131 93.5025 47.7805 93.4309 47.7805 93.3528C47.9237 92.9491 48.2493 92.3567 48.7571 91.5754C49.2649 90.7812 49.5839 90.2473 49.7141 89.9739C49.8573 89.7135 50.1047 89.3359 50.4563 88.8411C50.8209 88.3333 51.0683 87.9426 51.1985 87.6692C51.3157 87.4999 51.3352 87.4088 51.2571 87.3958C51.192 87.3958 51.0813 87.4478 50.925 87.552C50.7558 87.6822 50.5084 87.8124 50.1829 87.9426C49.8573 88.0728 49.5839 88.1575 49.3625 88.1965C49.2193 88.2096 49.1021 88.1705 49.011 88.0793C48.8938 87.9491 48.8482 87.8385 48.8743 87.7473C48.9003 87.6562 48.998 87.539 49.1672 87.3958C49.5188 87.0963 49.8378 86.7903 50.1243 86.4778C50.4107 86.1523 50.6125 85.8788 50.7297 85.6575C50.8599 85.4231 50.8795 85.2734 50.7883 85.2083C50.7623 85.1952 50.6321 85.2148 50.3977 85.2668C49.6555 85.4361 49.2844 85.3319 49.2844 84.9543C49.2714 84.8632 49.2909 84.7981 49.343 84.759C49.3951 84.7069 49.4667 84.6744 49.5579 84.6614C49.649 84.6484 49.7141 84.6288 49.7532 84.6028C49.7922 84.5377 50.1112 84.4791 50.7102 84.427C50.8404 84.414 50.9316 84.3944 50.9836 84.3684C51.0357 84.3293 51.0683 84.2903 51.0813 84.2512C51.0943 84.1991 51.1008 84.108 51.1008 83.9778C51.1008 83.8476 51.1138 83.7304 51.1399 83.6262C51.1659 83.2356 51.218 82.9947 51.2961 82.9036C51.5826 82.7213 51.7844 82.7994 51.9016 83.1379C51.9928 83.2942 52.0383 83.3984 52.0383 83.4504C52.0383 83.5025 51.9993 83.6197 51.9211 83.802C51.8821 83.8931 51.9146 83.9322 52.0188 83.9192C52.2011 83.9062 52.442 83.789 52.7415 83.5676C52.9107 83.4374 53.0279 83.3723 53.093 83.3723ZM52.0774 91.2825C52.1425 91.2564 52.2011 91.2304 52.2532 91.2043C52.3183 91.1783 52.3573 91.1653 52.3704 91.1653C52.3834 91.1653 52.4029 91.1523 52.429 91.1262C52.468 91.1002 52.5006 91.0806 52.5266 91.0676C52.5527 91.0416 52.6112 90.996 52.7024 90.9309C52.8326 90.8137 52.9107 90.7356 52.9368 90.6965C52.9628 90.6444 52.9758 90.5663 52.9758 90.4622C53.0149 90.2017 52.9368 90.0129 52.7415 89.8958C52.5461 89.7655 52.3443 89.7525 52.136 89.8567C52.0058 89.9348 51.8625 90.1497 51.7063 90.5012C51.5631 90.8528 51.498 91.1653 51.511 91.4387C51.537 91.5038 51.7258 91.4517 52.0774 91.2825ZM53.0735 91.7512C53.0735 91.634 53.0474 91.5754 52.9954 91.5754C52.8521 91.6145 52.6568 91.7187 52.4094 91.8879C52.162 92.0442 51.9602 92.1549 51.804 92.22C51.4784 92.3762 51.3027 92.4869 51.2766 92.552C51.2375 92.6301 51.1985 92.7864 51.1594 93.0208C51.1204 93.2421 51.1073 93.3788 51.1204 93.4309C51.1594 93.47 51.205 93.483 51.2571 93.47C51.3092 93.4439 51.3743 93.4179 51.4524 93.3918C51.5305 93.3528 51.5826 93.3398 51.6086 93.3528C51.7128 93.3528 51.9407 93.2161 52.2922 92.9426C52.5787 92.7213 52.761 92.5455 52.8391 92.4153C52.9172 92.2851 52.9954 92.0637 53.0735 91.7512ZM71.9696 82.7668C71.8133 82.7668 71.7743 82.6236 71.8524 82.3372C71.8915 82.2721 71.9175 82.0767 71.9305 81.7512C71.9435 81.4257 71.9891 81.2499 72.0672 81.2239C72.2235 81.1458 72.3602 81.1458 72.4774 81.2239C72.6076 81.289 72.6727 81.4127 72.6727 81.595C72.6987 81.7512 72.7313 81.8489 72.7704 81.8879C72.8224 81.94 73.174 81.7773 73.825 81.3997C74.3849 81.0481 74.8928 80.9569 75.3485 81.1262C75.4657 81.1783 75.6024 81.2825 75.7586 81.4387C75.9279 81.595 76.0256 81.7187 76.0516 81.8098C76.0907 81.901 76.1037 82.0767 76.0907 82.3372C76.0907 82.5976 76.0711 82.8124 76.0321 82.9817C75.967 83.2161 75.7912 83.6002 75.5047 84.134C75.2183 84.6549 74.9904 84.9999 74.8211 85.1692C74.5998 85.4036 74.3263 85.5663 74.0008 85.6575C73.6753 85.7356 73.4019 85.7161 73.1805 85.5989C73.0633 85.5468 72.9917 85.5273 72.9657 85.5403C72.9396 85.5403 72.9201 85.5924 72.9071 85.6965C72.8941 85.7486 72.881 85.7877 72.868 85.8137C72.842 86.0481 72.7638 86.2109 72.6336 86.302C72.5034 86.3801 72.3667 86.3541 72.2235 86.2239C72.1193 86.0806 72.0998 85.6249 72.1649 84.8567C72.23 84.0754 72.243 83.5806 72.204 83.3723C72.1649 82.9687 72.0868 82.7668 71.9696 82.7668ZM75.3875 82.4153C75.3875 82.259 75.3745 82.1549 75.3485 82.1028C75.3355 82.0507 75.2899 81.9856 75.2118 81.9075C75.0816 81.7773 74.9513 81.7187 74.8211 81.7317C74.6909 81.7317 74.5021 81.7968 74.2547 81.927C74.0464 82.0442 73.5972 82.3306 72.9071 82.7864C72.8941 82.8385 72.9071 83.0012 72.9461 83.2747C72.9852 83.5481 73.0112 83.6978 73.0243 83.7239C73.0894 83.789 73.2131 83.6653 73.3954 83.3528C73.4865 83.2226 73.6297 83.0793 73.825 82.9231C74.0334 82.7668 74.2157 82.6627 74.3719 82.6106C74.8537 82.4413 75.1401 82.4674 75.2313 82.6887C75.2964 82.858 75.342 82.845 75.368 82.6497C75.381 82.5846 75.3875 82.5064 75.3875 82.4153ZM75.1922 83.1379C75.2183 83.0728 75.2183 83.0403 75.1922 83.0403C75.1662 83.0273 75.1011 83.0468 74.9969 83.0989C74.8016 83.177 74.6649 83.2356 74.5868 83.2747C74.5217 83.3007 74.437 83.3593 74.3329 83.4504C74.2287 83.5286 74.105 83.6523 73.9618 83.8215L73.5516 84.2708L73.5321 84.6418C73.5321 84.8241 73.5386 84.9413 73.5516 84.9934C73.5646 85.0325 73.6037 85.0715 73.6688 85.1106C73.7469 85.1497 73.8055 85.1627 73.8446 85.1497C73.8836 85.1236 73.9813 85.0325 74.1375 84.8762C74.4761 84.5898 74.8276 84.0103 75.1922 83.1379ZM76.6571 86.2825C76.6961 86.3866 76.6115 86.5299 76.4032 86.7122C76.1948 86.8814 76.0451 86.953 75.954 86.927C75.9019 86.927 75.8237 86.953 75.7196 87.0051C75.6154 87.0442 75.4982 87.1093 75.368 87.2004C75.2378 87.2786 75.1206 87.3567 75.0165 87.4348C74.9253 87.4999 74.8146 87.578 74.6844 87.6692C74.5542 87.7603 74.4891 87.8059 74.4891 87.8059C74.3329 87.9622 74.105 88.1314 73.8055 88.3137C73.5191 88.496 73.3042 88.6523 73.161 88.7825C73.0568 88.8736 72.9266 88.9648 72.7704 89.0559C72.6271 89.1471 72.5165 89.2382 72.4383 89.3293C72.3081 89.4075 72.0868 89.5312 71.7743 89.7004C71.4748 89.8697 71.1558 90.0715 70.8172 90.3059C70.5438 90.4882 70.3745 90.5793 70.3094 90.5793C70.2183 90.5793 70.1271 90.5403 70.036 90.4622C69.9579 90.371 69.9188 90.2864 69.9188 90.2083C69.8928 90.065 70.036 89.8892 70.3485 89.6809C70.661 89.4596 71.0451 89.2317 71.5008 88.9973C71.9696 88.7499 72.2756 88.5611 72.4188 88.4309C72.6922 88.2226 72.9787 88.0077 73.2782 87.7864C73.5907 87.552 73.8316 87.3762 74.0008 87.259C74.1831 87.1418 74.4891 86.9465 74.9188 86.6731C75.3485 86.3866 75.6219 86.2043 75.7391 86.1262C76.0125 85.9439 76.2339 85.8723 76.4032 85.9114C76.5724 85.9374 76.6571 86.0611 76.6571 86.2825ZM74.5672 88.4309C74.6974 88.4309 74.7756 88.5286 74.8016 88.7239C74.8407 88.9062 74.8667 89.3684 74.8797 90.1106C74.8797 90.2148 74.8602 90.4296 74.8211 90.7551C74.7691 91.1588 74.7691 91.3866 74.8211 91.4387C74.8732 91.4908 75.0165 91.3866 75.2508 91.1262C75.355 90.996 75.5503 90.7942 75.8368 90.5208C76.1232 90.2343 76.3316 89.9999 76.4618 89.8176C76.5529 89.6744 76.631 89.5767 76.6961 89.5247C76.7743 89.4596 76.8524 89.3684 76.9305 89.2512C77.1519 88.9648 77.3407 88.8411 77.4969 88.8801C77.8355 88.9713 77.7443 89.3293 77.2235 89.9543C76.7157 90.5793 76.0256 91.3476 75.1532 92.259C74.7495 92.6627 74.4435 92.8319 74.2352 92.7668C74.079 92.7017 73.9813 92.6106 73.9422 92.4934C73.9162 92.3632 73.9292 92.1418 73.9813 91.8293C74.0855 91.1653 74.1506 90.3971 74.1766 89.5247C74.2026 88.9387 74.2482 88.6132 74.3133 88.5481C74.3784 88.47 74.4631 88.4309 74.5672 88.4309ZM73.5711 93.8606C73.6362 93.8476 73.7795 93.8866 74.0008 93.9778C74.2222 94.0689 74.3459 94.1145 74.3719 94.1145C74.7105 94.1796 75.1662 94.3359 75.7391 94.5833C76.312 94.8306 76.7026 94.9869 76.911 95.052C77.1584 95.1301 77.5425 95.2929 78.0633 95.5403C78.5972 95.7747 79.0334 95.9439 79.3719 96.0481C79.4631 96.0741 79.6193 96.1197 79.8407 96.1848C80.062 96.2629 80.2443 96.3215 80.3875 96.3606C80.5308 96.4127 80.7196 96.4517 80.954 96.4778C81.2013 96.5168 81.4487 96.5364 81.6961 96.5364C81.9956 96.5494 82.1974 96.5819 82.3016 96.634C82.4058 96.6991 82.4579 96.8033 82.4579 96.9465C82.4579 97.246 82.243 97.3958 81.8133 97.3958C81.5138 97.3958 80.9409 97.2851 80.0946 97.0637C79.2612 96.8424 78.7274 96.6731 78.493 96.5559C78.2196 96.3997 77.7899 96.2174 77.204 96.009C76.618 95.8007 76.2209 95.6444 76.0125 95.5403C75.7261 95.3971 75.3941 95.2603 75.0165 95.1301C74.6388 94.9869 74.1701 94.8306 73.6102 94.6614C73.0503 94.4791 72.6857 94.3554 72.5165 94.2903C72.4513 94.2642 72.2691 94.2252 71.9696 94.1731C71.6831 94.121 71.5008 94.0754 71.4227 94.0364C71.3055 93.9452 71.1948 93.9583 71.0907 94.0754C70.9995 94.1926 70.9019 94.3489 70.7977 94.5442C70.7066 94.7395 70.6284 94.8567 70.5633 94.8958C70.3941 95.1562 70.1662 95.4556 69.8797 95.7942C69.5933 96.1197 69.3654 96.3411 69.1961 96.4583C69.105 96.5103 68.9813 96.6145 68.825 96.7708C68.6558 96.927 68.4474 97.0767 68.2 97.22C67.9526 97.3762 67.7769 97.4543 67.6727 97.4543C67.3862 97.4674 67.2756 97.3372 67.3407 97.0637C67.3928 96.8163 67.5034 96.6601 67.6727 96.595C67.7248 96.5819 67.7704 96.5819 67.8094 96.595C67.9396 96.5819 68.0374 96.5494 68.1025 96.4973C68.2457 96.4062 68.5256 96.1458 68.9422 95.7161C69.3719 95.2864 69.6193 95.0129 69.6844 94.8958C69.7756 94.7395 69.8603 94.6158 69.9384 94.5247C70.3551 93.9257 70.8303 92.9556 71.3641 91.6145C71.4422 91.3541 71.605 91.2564 71.8524 91.3215C72.0347 91.3346 72.1454 91.3671 72.1844 91.4192C72.2235 91.4583 72.204 91.5429 72.1258 91.6731C72.0477 91.7382 71.9761 91.8424 71.911 91.9856C71.8589 92.1158 71.8003 92.2786 71.7352 92.4739C71.6701 92.6562 71.618 92.7929 71.579 92.884C71.4748 93.1314 71.4357 93.2616 71.4618 93.2747C71.5008 93.2877 71.6701 93.3267 71.9696 93.3918C72.2821 93.4569 72.5295 93.5221 72.7118 93.5872C72.9071 93.6392 73.0633 93.6978 73.1805 93.7629C73.3368 93.828 73.467 93.8606 73.5711 93.8606ZM99.6352 81.6536C99.6352 82.0312 99.5896 82.5194 99.4985 83.1184C99.4204 83.7174 99.3748 84.1015 99.3618 84.2708C99.3748 84.3749 99.3618 84.5312 99.3227 84.7395C99.2967 84.9478 99.2641 85.1431 99.225 85.3254C99.186 85.5077 99.1665 85.677 99.1665 85.8333C99.1795 85.9895 99.225 86.0872 99.3032 86.1262C99.5766 86.3866 99.6938 86.6471 99.6547 86.9075C99.6157 87.1679 99.4269 87.3958 99.0883 87.5911C98.906 87.7083 98.7693 87.8124 98.6782 87.9036C98.561 88.0338 98.3982 88.0989 98.1899 88.0989C97.9946 88.0989 97.8839 88.0273 97.8579 87.884C97.8448 87.8319 97.9034 87.7473 98.0336 87.6301C98.1638 87.4999 98.3006 87.3958 98.4438 87.3176C98.7042 87.1744 98.7628 87.0507 98.6196 86.9465C98.4633 86.8554 98.2355 86.8684 97.936 86.9856C97.6625 87.0898 97.2068 87.2721 96.5688 87.5325C95.9438 87.7799 95.4425 87.9817 95.0649 88.1379C94.6873 88.2812 94.2576 88.4635 93.7758 88.6848C93.2941 88.8931 92.8969 89.0885 92.5844 89.2708C92.3631 89.401 92.0896 89.5507 91.7641 89.72C91.4386 89.8892 91.1977 90.0194 91.0415 90.1106C90.9763 90.1627 90.8722 90.2213 90.729 90.2864C90.5857 90.3385 90.462 90.4036 90.3579 90.4817C90.2667 90.5598 90.1495 90.677 90.0063 90.8333C89.6938 91.1458 89.4985 91.289 89.4204 91.2629C89.1599 91.1848 89.0167 91.0806 88.9907 90.9504C88.9646 90.8723 88.9777 90.7616 89.0297 90.6184C89.0948 90.4622 89.2641 90.1041 89.5375 89.5442C89.6808 89.2577 89.811 88.9648 89.9282 88.6653C90.0454 88.3528 90.13 88.151 90.1821 88.0598C90.2211 87.9817 90.2472 87.8515 90.2602 87.6692C90.2732 87.4869 90.2797 87.0247 90.2797 86.2825C90.2797 85.0846 90.2407 84.2838 90.1625 83.8801C90.0844 83.4765 89.9282 83.1835 89.6938 83.0012C89.5245 82.9231 89.4334 82.8059 89.4204 82.6497C89.4073 82.4804 89.4594 82.3372 89.5766 82.22C89.9803 81.8033 90.3839 81.5103 90.7875 81.3411C91.1912 81.1718 91.4842 81.1588 91.6665 81.302C91.7576 81.3801 91.7836 81.4648 91.7446 81.5559C91.7185 81.6471 91.6339 81.7122 91.4907 81.7512C91.3735 81.8033 91.2107 81.914 91.0024 82.0833L90.729 82.3176L90.7485 82.5911C90.7745 82.7734 90.8071 82.9752 90.8461 83.1965L90.9047 83.5481H91.1196C91.2498 83.5481 91.4321 83.4765 91.6665 83.3333C91.9138 83.177 92.0831 83.1119 92.1743 83.1379C92.6821 83.2942 92.6886 83.5416 92.1938 83.8801C91.9855 84.0234 91.7446 84.134 91.4711 84.2122C91.354 84.2512 91.2628 84.2968 91.1977 84.3489C91.1326 84.3879 91.087 84.4465 91.061 84.5247C91.0349 84.5898 91.0219 84.6484 91.0219 84.7004C91.0219 84.7525 91.0219 84.8437 91.0219 84.9739C91.0349 85.0911 91.0415 85.1822 91.0415 85.2473C91.0415 85.3645 91.061 85.4231 91.1 85.4231C91.1391 85.4231 91.3605 85.2278 91.7641 84.8372C92.1808 84.4335 92.4542 84.1536 92.5844 83.9973C92.6625 83.9062 92.7537 83.8606 92.8579 83.8606C92.962 83.8476 93.0336 83.8866 93.0727 83.9778C93.0857 84.108 93.0336 84.2577 92.9165 84.427C92.8123 84.5833 92.6625 84.759 92.4672 84.9543C92.2849 85.1366 92.1678 85.2734 92.1157 85.3645C92.0115 85.4947 91.8422 85.677 91.6079 85.9114C91.3735 86.1458 91.2042 86.3671 91.1 86.5754C90.9959 86.7838 90.9438 87.0637 90.9438 87.4153C90.9438 87.5715 90.9503 87.7408 90.9633 87.9231C90.9763 88.0924 90.9763 88.2161 90.9633 88.2942C90.9633 88.3593 90.9503 88.4439 90.9243 88.5481C90.8982 88.6523 90.8461 88.776 90.768 88.9192C90.5857 89.2447 90.5402 89.4075 90.6313 89.4075C90.7094 89.4205 90.9568 89.3098 91.3735 89.0754C92.7146 88.3984 93.6847 87.9296 94.2836 87.6692C94.8566 87.4348 95.143 87.2916 95.143 87.2395C95.13 87.2265 95.0584 87.1679 94.9282 87.0637C94.798 86.9596 94.7263 86.8684 94.7133 86.7903C94.6612 86.6601 94.6092 86.5754 94.5571 86.5364C94.505 86.4843 94.4464 86.4908 94.3813 86.5559C94.3162 86.621 94.2641 86.6796 94.225 86.7317C94.186 86.7838 94.1274 86.8749 94.0493 87.0051C93.9711 87.2004 93.8409 87.3372 93.6586 87.4153C93.4763 87.4804 93.3527 87.4478 93.2875 87.3176C93.2355 87.1874 93.2941 86.9986 93.4633 86.7512C93.5284 86.6601 93.6 86.5168 93.6782 86.3215C93.7563 86.1262 93.7954 85.996 93.7954 85.9309C93.7823 85.8918 93.6782 85.7616 93.4829 85.5403C93.3006 85.3059 93.2029 85.1627 93.1899 85.1106C93.1248 85.0064 93.1248 84.9088 93.1899 84.8176C93.268 84.7135 93.3657 84.6614 93.4829 84.6614C93.6 84.6484 93.7237 84.6874 93.854 84.7786C93.867 84.7916 93.8865 84.8111 93.9125 84.8372C94.0297 84.9153 94.1144 84.9543 94.1665 84.9543C94.2316 84.9413 94.3032 84.8762 94.3813 84.759C94.6938 84.2903 94.9282 84.0559 95.0844 84.0559C95.2537 84.0559 95.3383 84.1275 95.3383 84.2708C95.3513 84.414 95.2797 84.6549 95.1235 84.9934C94.9803 85.3059 94.9021 85.5142 94.8891 85.6184C94.8891 85.7226 94.9607 85.8463 95.104 85.9895C95.1951 86.0676 95.2602 86.1523 95.2993 86.2434C95.3383 86.3215 95.3839 86.3931 95.436 86.4583C95.5271 86.5364 95.5597 86.6601 95.5336 86.8293C95.5206 86.9856 95.5336 87.0702 95.5727 87.0833C95.6248 87.0833 95.7615 87.0312 95.9829 86.927C96.2433 86.7968 96.5688 86.6731 96.9594 86.5559C97.35 86.4387 97.604 86.3541 97.7211 86.302L98.0727 86.1458L97.975 86.0286C97.8579 85.8984 97.8058 85.8007 97.8188 85.7356C97.8448 85.6575 97.9425 85.5793 98.1118 85.5012C98.3592 85.371 98.5024 85.1041 98.5415 84.7004C98.5805 84.4661 98.561 84.3293 98.4829 84.2903C98.4178 84.2382 98.2941 84.2838 98.1118 84.427C97.9295 84.5442 97.7407 84.5767 97.5454 84.5247C97.35 84.4596 97.2329 84.3619 97.1938 84.2317C97.1678 84.1405 97.1808 84.0624 97.2329 83.9973C97.298 83.9322 97.4477 83.8411 97.6821 83.7239C97.8774 83.6067 98.0141 83.5221 98.0922 83.47C98.1834 83.4179 98.2941 83.3202 98.4243 83.177C98.5545 83.0338 98.6261 82.8971 98.6391 82.7668C98.6391 82.4804 98.5284 82.4413 98.3071 82.6497C98.0987 82.8059 97.9555 82.9101 97.8774 82.9622C97.8123 83.0142 97.7146 83.0793 97.5844 83.1575C97.4542 83.2226 97.3435 83.2421 97.2524 83.2161C97.1743 83.19 97.0896 83.1314 96.9985 83.0403C96.9334 82.9622 96.9138 82.871 96.9399 82.7668C96.9138 82.7278 96.9855 82.6497 97.1547 82.5325C97.324 82.4153 97.5258 82.2851 97.7602 82.1418C98.0076 81.9986 98.1638 81.901 98.229 81.8489C98.3852 81.7317 98.5089 81.6601 98.6 81.634C98.6912 81.621 98.7368 81.5819 98.7368 81.5168C98.7368 81.4257 98.6847 81.3671 98.5805 81.3411C98.4894 81.302 98.3006 81.2825 98.0141 81.2825C97.7667 81.2825 97.6105 81.276 97.5454 81.2629C97.4803 81.2499 97.4217 81.2174 97.3696 81.1653C97.1743 80.9179 97.3045 80.7226 97.7602 80.5793C98.268 80.4231 98.7042 80.4361 99.0688 80.6184C99.1339 80.6575 99.186 80.6965 99.225 80.7356C99.3292 80.8267 99.4204 80.97 99.4985 81.1653C99.5896 81.3606 99.6352 81.5234 99.6352 81.6536ZM93.7954 82.259C93.9256 82.3111 94.0493 82.2916 94.1665 82.2004C94.2967 82.1093 94.4008 82.0051 94.479 81.8879C94.5701 81.7577 94.6808 81.6601 94.811 81.595C94.9412 81.5168 95.0649 81.5168 95.1821 81.595C95.3513 81.7122 95.3123 81.9075 95.0649 82.1809C94.7133 82.5976 94.7198 82.8124 95.0844 82.8254C95.3579 82.8254 95.5662 82.9231 95.7094 83.1184C95.8657 83.3007 95.8592 83.4569 95.6899 83.5872C95.4946 83.7434 95.2407 83.776 94.9282 83.6848C94.7068 83.6197 94.5571 83.6002 94.479 83.6262C94.4138 83.6392 94.3097 83.7239 94.1665 83.8801C93.9191 84.1796 93.7368 84.2773 93.6196 84.1731C93.5024 84.0819 93.5154 83.8736 93.6586 83.5481C93.7368 83.3918 93.7693 83.2877 93.7563 83.2356C93.7433 83.1705 93.6847 83.1119 93.5805 83.0598C93.4633 83.0077 93.3266 82.9036 93.1704 82.7473C93.0141 82.5911 92.949 82.4674 92.975 82.3762C92.936 82.2851 93.0141 82.2265 93.2094 82.2004C93.4698 82.1744 93.6652 82.1939 93.7954 82.259ZM95.6704 91.6731C95.6964 91.7252 95.8071 91.8424 96.0024 92.0247C96.2107 92.1939 96.3279 92.3111 96.354 92.3762C96.4321 92.5325 96.5428 92.6041 96.686 92.5911C96.8292 92.565 97.1287 92.4413 97.5844 92.22C98.4568 91.8293 99.2381 91.3931 99.9282 90.9114C100.071 90.8202 100.221 90.8137 100.377 90.8918C100.533 90.9569 100.612 91.0676 100.612 91.2239C100.573 91.3801 100.514 91.4973 100.436 91.5754C100.371 91.6405 100.26 91.6991 100.104 91.7512C99.9607 91.8033 99.8435 91.8684 99.7524 91.9465C99.4399 92.1418 98.9125 92.4218 98.1704 92.7864C97.4412 93.151 97.018 93.3593 96.9008 93.4114C96.7316 93.4635 96.6209 93.5676 96.5688 93.7239C96.5167 93.8671 96.4777 94.1991 96.4516 94.72C96.3865 95.5663 96.3279 96.1132 96.2758 96.3606C96.2368 96.608 96.1326 96.9465 95.9633 97.3762C95.6118 98.2096 95.0388 98.2096 94.2446 97.3762C94.0753 97.1939 93.9516 97.0312 93.8735 96.8879C93.8084 96.7447 93.7303 96.4908 93.6391 96.1262C93.574 95.8918 93.561 95.7291 93.6 95.6379C93.6391 95.5468 93.7368 95.5208 93.893 95.5598C93.9842 95.6119 94.0623 95.7486 94.1274 95.97C94.1925 96.1913 94.2381 96.3215 94.2641 96.3606C94.3032 96.4127 94.3422 96.4843 94.3813 96.5754C94.4334 96.6666 94.4855 96.7447 94.5375 96.8098C94.5896 96.8749 94.6547 96.9335 94.7329 96.9856C94.8761 97.0767 94.9933 97.1028 95.0844 97.0637C95.3318 96.9465 95.5336 96.1848 95.6899 94.7786C95.742 94.3359 95.7485 94.0885 95.7094 94.0364C95.6704 93.9713 95.5402 93.9843 95.3188 94.0754C93.8214 94.6353 92.8839 94.8437 92.5063 94.7004C92.4021 94.6484 92.337 94.5442 92.311 94.3879C92.2849 94.2187 92.324 94.0885 92.4282 93.9973C92.4803 93.9583 92.7862 93.8801 93.3461 93.7629C93.906 93.6458 94.2185 93.5676 94.2836 93.5286C94.3357 93.5155 94.4269 93.4895 94.5571 93.4504C95.1821 93.2681 95.5076 93.1119 95.5336 92.9817C95.5336 92.8775 95.4099 92.7799 95.1625 92.6887C95.1495 92.6757 95.1365 92.6692 95.1235 92.6692C94.4985 92.4348 94.4399 92.0181 94.9477 91.4192C95.0519 91.289 95.1235 91.1783 95.1625 91.0872C95.2016 90.983 95.2667 90.8658 95.3579 90.7356C95.5922 90.384 95.6313 90.2278 95.475 90.2668C95.4099 90.2799 95.3188 90.3189 95.2016 90.384C94.9412 90.5403 94.7329 90.5338 94.5766 90.3645C94.4204 90.2083 94.3748 90.078 94.4399 89.9739C94.518 89.8567 94.7133 89.733 95.0258 89.6028C95.0909 89.5898 95.2602 89.5116 95.5336 89.3684C95.8071 89.2252 96.061 89.1666 96.2954 89.1926C96.5037 89.2056 96.6404 89.2512 96.7055 89.3293C96.7836 89.3944 96.8162 89.5116 96.8032 89.6809C96.7902 89.8111 96.699 90.0325 96.5297 90.345C96.3605 90.6444 96.2042 90.8723 96.061 91.0286C95.9698 91.1327 95.8787 91.2564 95.7875 91.3997C95.7094 91.5299 95.6704 91.621 95.6704 91.6731Z" fill="#3D464D"/>
</svg>
