<svg width="12" height="12" viewBox="0 0 12 12" fill="none" xmlns="http://www.w3.org/2000/svg">
<path d="M2.89502 6.56474L7.00652 10.1617C7.49102 10.5862 8.25002 10.2412 8.25002 9.59699V2.40299C8.25014 2.2588 8.2087 2.11764 8.13066 1.9964C8.05262 1.87517 7.94129 1.77899 7.81 1.7194C7.67871 1.65981 7.53302 1.63932 7.39038 1.6604C7.24775 1.68148 7.11421 1.74322 7.00577 1.83824L2.89577 5.43524C2.81521 5.50563 2.75065 5.59245 2.70641 5.68986C2.66217 5.78726 2.63928 5.89301 2.63928 5.99999C2.63928 6.10697 2.66217 6.21271 2.70641 6.31012C2.75065 6.40753 2.81521 6.49434 2.89577 6.56474H2.89502Z" fill="#0B0B0B"/>
</svg>
