<svg width="28" height="28" viewBox="0 0 28 28" fill="none" xmlns="http://www.w3.org/2000/svg">
<g clip-path="url(#clip0_2029_41)">
<path d="M23.5677 21.6475C22.3252 19.6455 19.5899 17.5 13.9987 17.5C8.40744 17.5 5.67394 19.6437 4.42969 21.6475C5.57608 23.0847 7.03179 24.2448 8.68851 25.0417C10.3452 25.8385 12.1603 26.2515 13.9987 26.25C15.8371 26.2515 17.6521 25.8385 19.3089 25.0417C20.9656 24.2448 22.4213 23.0847 23.5677 21.6475Z" fill="#0B0B0B"/>
<path fill-rule="evenodd" clip-rule="evenodd" d="M14 15.75C15.3924 15.75 16.7277 15.1969 17.7123 14.2123C18.6969 13.2277 19.25 11.8924 19.25 10.5C19.25 9.10761 18.6969 7.77226 17.7123 6.78769C16.7277 5.80312 15.3924 5.25 14 5.25C12.6076 5.25 11.2723 5.80312 10.2877 6.78769C9.30312 7.77226 8.75 9.10761 8.75 10.5C8.75 11.8924 9.30312 13.2277 10.2877 14.2123C11.2723 15.1969 12.6076 15.75 14 15.75Z" fill="#0B0B0B"/>
<path fill-rule="evenodd" clip-rule="evenodd" d="M14 1.75C10.7511 1.75 7.63526 3.04062 5.33794 5.33794C3.04062 7.63526 1.75 10.7511 1.75 14C1.75 17.2489 3.04062 20.3647 5.33794 22.6621C7.63526 24.9594 10.7511 26.25 14 26.25C17.2489 26.25 20.3647 24.9594 22.6621 22.6621C24.9594 20.3647 26.25 17.2489 26.25 14C26.25 10.7511 24.9594 7.63526 22.6621 5.33794C20.3647 3.04062 17.2489 1.75 14 1.75ZM0 14C0 10.287 1.475 6.72601 4.10051 4.10051C6.72601 1.475 10.287 0 14 0C17.713 0 21.274 1.475 23.8995 4.10051C26.525 6.72601 28 10.287 28 14C28 17.713 26.525 21.274 23.8995 23.8995C21.274 26.525 17.713 28 14 28C10.287 28 6.72601 26.525 4.10051 23.8995C1.475 21.274 0 17.713 0 14Z" fill="#0B0B0B"/>
</g>
<defs>
<clipPath id="clip0_2029_41">
<rect width="28" height="28" fill="white"/>
</clipPath>
</defs>
</svg>
