<svg width="12" height="12" viewBox="0 0 12 12" fill="none" xmlns="http://www.w3.org/2000/svg">
<path d="M9.105 6.56474L4.9935 10.1617C4.509 10.5862 3.75 10.2412 3.75 9.59699V2.40299C3.74988 2.2588 3.79132 2.11764 3.86936 1.9964C3.9474 1.87517 4.05873 1.77899 4.19002 1.7194C4.32131 1.65981 4.467 1.63932 4.60963 1.6604C4.75227 1.68148 4.8858 1.74322 4.99425 1.83824L9.10425 5.43524C9.18481 5.50563 9.24937 5.59245 9.29361 5.68986C9.33785 5.78726 9.36073 5.89301 9.36073 5.99999C9.36073 6.10697 9.33785 6.21271 9.29361 6.31012C9.24937 6.40753 9.18481 6.49434 9.10425 6.56474H9.105Z" fill="#0B0B0B"/>
</svg>
