<svg width="27" height="27" viewBox="0 0 27 27" fill="none" xmlns="http://www.w3.org/2000/svg">
<path fill-rule="evenodd" clip-rule="evenodd" d="M0 1.625C0 1.39294 0.0921872 1.17038 0.256282 1.00628C0.420376 0.842187 0.642936 0.75 0.875 0.75H3.5C3.69518 0.750054 3.88474 0.815364 4.03853 0.935543C4.19232 1.05572 4.30152 1.22387 4.34875 1.41325L5.0575 4.25H25.375C25.5044 4.25008 25.6322 4.27886 25.7491 4.33427C25.8661 4.38967 25.9693 4.47033 26.0513 4.57042C26.1333 4.67052 26.1921 4.78756 26.2234 4.91311C26.2548 5.03866 26.2579 5.16961 26.2325 5.2965L24.4825 14.0465C24.4442 14.2373 24.3434 14.4099 24.196 14.537C24.0487 14.6641 23.8631 14.7384 23.6687 14.7482L7.224 15.5742L7.72625 18.25H22.75C22.9821 18.25 23.2046 18.3422 23.3687 18.5063C23.5328 18.6704 23.625 18.8929 23.625 19.125C23.625 19.3571 23.5328 19.5796 23.3687 19.7437C23.2046 19.9078 22.9821 20 22.75 20H7C6.79601 19.9998 6.59849 19.9284 6.44159 19.798C6.2847 19.6676 6.17828 19.4865 6.14075 19.286L3.5175 5.31225L2.8175 2.5H0.875C0.642936 2.5 0.420376 2.40781 0.256282 2.24372C0.0921872 2.07962 0 1.85706 0 1.625ZM5.4285 6L6.8985 13.8383L22.9005 13.035L24.3075 6H5.4285ZM8.75 20C7.82174 20 6.9315 20.3687 6.27513 21.0251C5.61875 21.6815 5.25 22.5717 5.25 23.5C5.25 24.4283 5.61875 25.3185 6.27513 25.9749C6.9315 26.6313 7.82174 27 8.75 27C9.67826 27 10.5685 26.6313 11.2249 25.9749C11.8813 25.3185 12.25 24.4283 12.25 23.5C12.25 22.5717 11.8813 21.6815 11.2249 21.0251C10.5685 20.3687 9.67826 20 8.75 20ZM21 20C20.0717 20 19.1815 20.3687 18.5251 21.0251C17.8687 21.6815 17.5 22.5717 17.5 23.5C17.5 24.4283 17.8687 25.3185 18.5251 25.9749C19.1815 26.6313 20.0717 27 21 27C21.9283 27 22.8185 26.6313 23.4749 25.9749C24.1312 25.3185 24.5 24.4283 24.5 23.5C24.5 22.5717 24.1312 21.6815 23.4749 21.0251C22.8185 20.3687 21.9283 20 21 20ZM8.75 21.75C8.28587 21.75 7.84075 21.9344 7.51256 22.2626C7.18437 22.5908 7 23.0359 7 23.5C7 23.9641 7.18437 24.4092 7.51256 24.7374C7.84075 25.0656 8.28587 25.25 8.75 25.25C9.21413 25.25 9.65925 25.0656 9.98744 24.7374C10.3156 24.4092 10.5 23.9641 10.5 23.5C10.5 23.0359 10.3156 22.5908 9.98744 22.2626C9.65925 21.9344 9.21413 21.75 8.75 21.75ZM21 21.75C20.5359 21.75 20.0908 21.9344 19.7626 22.2626C19.4344 22.5908 19.25 23.0359 19.25 23.5C19.25 23.9641 19.4344 24.4092 19.7626 24.7374C20.0908 25.0656 20.5359 25.25 21 25.25C21.4641 25.25 21.9092 25.0656 22.2374 24.7374C22.5656 24.4092 22.75 23.9641 22.75 23.5C22.75 23.0359 22.5656 22.5908 22.2374 22.2626C21.9092 21.9344 21.4641 21.75 21 21.75Z" fill="#0B0B0B"/>
</svg>
